G04 #@! TF.GenerationSoftware,KiCad,Pcbnew,(5.1.2)-1*
G04 #@! TF.CreationDate,2020-07-25T21:03:26+09:00*
G04 #@! TF.ProjectId,cs,63732e6b-6963-4616-945f-706362585858,v1.1*
G04 #@! TF.SameCoordinates,Original*
G04 #@! TF.FileFunction,Legend,Bot*
G04 #@! TF.FilePolarity,Positive*
%FSLAX46Y46*%
G04 Gerber Fmt 4.6, Leading zero omitted, Abs format (unit mm)*
G04 Created by KiCad (PCBNEW (5.1.2)-1) date 2020-07-25 21:03:26*
%MOMM*%
%LPD*%
G04 APERTURE LIST*
%ADD10C,0.150000*%
%ADD11C,2.302000*%
%ADD12O,1.802000X1.802000*%
%ADD13R,1.802000X1.802000*%
G04 APERTURE END LIST*
D10*
X151880952Y-116371428D02*
X151119047Y-116371428D01*
X150642857Y-116371428D02*
X149880952Y-116371428D01*
X149404761Y-116371428D02*
X148642857Y-116371428D01*
X148214285Y-116466666D02*
X147738095Y-116466666D01*
X148309523Y-116752380D02*
X147976190Y-115752380D01*
X147642857Y-116752380D01*
X146738095Y-116657142D02*
X146785714Y-116704761D01*
X146928571Y-116752380D01*
X147023809Y-116752380D01*
X147166666Y-116704761D01*
X147261904Y-116609523D01*
X147309523Y-116514285D01*
X147357142Y-116323809D01*
X147357142Y-116180952D01*
X147309523Y-115990476D01*
X147261904Y-115895238D01*
X147166666Y-115800000D01*
X147023809Y-115752380D01*
X146928571Y-115752380D01*
X146785714Y-115800000D01*
X146738095Y-115847619D01*
X144976190Y-116657142D02*
X145023809Y-116704761D01*
X145166666Y-116752380D01*
X145261904Y-116752380D01*
X145404761Y-116704761D01*
X145500000Y-116609523D01*
X145547619Y-116514285D01*
X145595238Y-116323809D01*
X145595238Y-116180952D01*
X145547619Y-115990476D01*
X145500000Y-115895238D01*
X145404761Y-115800000D01*
X145261904Y-115752380D01*
X145166666Y-115752380D01*
X145023809Y-115800000D01*
X144976190Y-115847619D01*
X144119047Y-116752380D02*
X144119047Y-116228571D01*
X144166666Y-116133333D01*
X144261904Y-116085714D01*
X144452380Y-116085714D01*
X144547619Y-116133333D01*
X144119047Y-116704761D02*
X144214285Y-116752380D01*
X144452380Y-116752380D01*
X144547619Y-116704761D01*
X144595238Y-116609523D01*
X144595238Y-116514285D01*
X144547619Y-116419047D01*
X144452380Y-116371428D01*
X144214285Y-116371428D01*
X144119047Y-116323809D01*
X143642857Y-116752380D02*
X143642857Y-115752380D01*
X143642857Y-116133333D02*
X143547619Y-116085714D01*
X143357142Y-116085714D01*
X143261904Y-116133333D01*
X143214285Y-116180952D01*
X143166666Y-116276190D01*
X143166666Y-116561904D01*
X143214285Y-116657142D01*
X143261904Y-116704761D01*
X143357142Y-116752380D01*
X143547619Y-116752380D01*
X143642857Y-116704761D01*
X142595238Y-116752380D02*
X142690476Y-116704761D01*
X142738095Y-116609523D01*
X142738095Y-115752380D01*
X141833333Y-116704761D02*
X141928571Y-116752380D01*
X142119047Y-116752380D01*
X142214285Y-116704761D01*
X142261904Y-116609523D01*
X142261904Y-116228571D01*
X142214285Y-116133333D01*
X142119047Y-116085714D01*
X141928571Y-116085714D01*
X141833333Y-116133333D01*
X141785714Y-116228571D01*
X141785714Y-116323809D01*
X142261904Y-116419047D01*
X141357142Y-116371428D02*
X140595238Y-116371428D01*
X140119047Y-116371428D02*
X139357142Y-116371428D01*
X138880952Y-116371428D02*
X138119047Y-116371428D01*
X152061904Y-130241666D02*
X151585714Y-130241666D01*
X152157142Y-130527380D02*
X151823809Y-129527380D01*
X151490476Y-130527380D01*
X150585714Y-130432142D02*
X150633333Y-130479761D01*
X150776190Y-130527380D01*
X150871428Y-130527380D01*
X151014285Y-130479761D01*
X151109523Y-130384523D01*
X151157142Y-130289285D01*
X151204761Y-130098809D01*
X151204761Y-129955952D01*
X151157142Y-129765476D01*
X151109523Y-129670238D01*
X151014285Y-129575000D01*
X150871428Y-129527380D01*
X150776190Y-129527380D01*
X150633333Y-129575000D01*
X150585714Y-129622619D01*
X148823809Y-130432142D02*
X148871428Y-130479761D01*
X149014285Y-130527380D01*
X149109523Y-130527380D01*
X149252380Y-130479761D01*
X149347619Y-130384523D01*
X149395238Y-130289285D01*
X149442857Y-130098809D01*
X149442857Y-129955952D01*
X149395238Y-129765476D01*
X149347619Y-129670238D01*
X149252380Y-129575000D01*
X149109523Y-129527380D01*
X149014285Y-129527380D01*
X148871428Y-129575000D01*
X148823809Y-129622619D01*
X147966666Y-129860714D02*
X147966666Y-130527380D01*
X148395238Y-129860714D02*
X148395238Y-130384523D01*
X148347619Y-130479761D01*
X148252380Y-130527380D01*
X148109523Y-130527380D01*
X148014285Y-130479761D01*
X147966666Y-130432142D01*
X147490476Y-130527380D02*
X147490476Y-129860714D01*
X147490476Y-130051190D02*
X147442857Y-129955952D01*
X147395238Y-129908333D01*
X147300000Y-129860714D01*
X147204761Y-129860714D01*
X146871428Y-130527380D02*
X146871428Y-129860714D01*
X146871428Y-130051190D02*
X146823809Y-129955952D01*
X146776190Y-129908333D01*
X146680952Y-129860714D01*
X146585714Y-129860714D01*
X145871428Y-130479761D02*
X145966666Y-130527380D01*
X146157142Y-130527380D01*
X146252380Y-130479761D01*
X146300000Y-130384523D01*
X146300000Y-130003571D01*
X146252380Y-129908333D01*
X146157142Y-129860714D01*
X145966666Y-129860714D01*
X145871428Y-129908333D01*
X145823809Y-130003571D01*
X145823809Y-130098809D01*
X146300000Y-130194047D01*
X145395238Y-129860714D02*
X145395238Y-130527380D01*
X145395238Y-129955952D02*
X145347619Y-129908333D01*
X145252380Y-129860714D01*
X145109523Y-129860714D01*
X145014285Y-129908333D01*
X144966666Y-130003571D01*
X144966666Y-130527380D01*
X144633333Y-129860714D02*
X144252380Y-129860714D01*
X144490476Y-129527380D02*
X144490476Y-130384523D01*
X144442857Y-130479761D01*
X144347619Y-130527380D01*
X144252380Y-130527380D01*
X143204761Y-130479761D02*
X143061904Y-130527380D01*
X142823809Y-130527380D01*
X142728571Y-130479761D01*
X142680952Y-130432142D01*
X142633333Y-130336904D01*
X142633333Y-130241666D01*
X142680952Y-130146428D01*
X142728571Y-130098809D01*
X142823809Y-130051190D01*
X143014285Y-130003571D01*
X143109523Y-129955952D01*
X143157142Y-129908333D01*
X143204761Y-129813095D01*
X143204761Y-129717857D01*
X143157142Y-129622619D01*
X143109523Y-129575000D01*
X143014285Y-129527380D01*
X142776190Y-129527380D01*
X142633333Y-129575000D01*
X141823809Y-130479761D02*
X141919047Y-130527380D01*
X142109523Y-130527380D01*
X142204761Y-130479761D01*
X142252380Y-130384523D01*
X142252380Y-130003571D01*
X142204761Y-129908333D01*
X142109523Y-129860714D01*
X141919047Y-129860714D01*
X141823809Y-129908333D01*
X141776190Y-130003571D01*
X141776190Y-130098809D01*
X142252380Y-130194047D01*
X141347619Y-129860714D02*
X141347619Y-130527380D01*
X141347619Y-129955952D02*
X141300000Y-129908333D01*
X141204761Y-129860714D01*
X141061904Y-129860714D01*
X140966666Y-129908333D01*
X140919047Y-130003571D01*
X140919047Y-130527380D01*
X140490476Y-130479761D02*
X140395238Y-130527380D01*
X140204761Y-130527380D01*
X140109523Y-130479761D01*
X140061904Y-130384523D01*
X140061904Y-130336904D01*
X140109523Y-130241666D01*
X140204761Y-130194047D01*
X140347619Y-130194047D01*
X140442857Y-130146428D01*
X140490476Y-130051190D01*
X140490476Y-130003571D01*
X140442857Y-129908333D01*
X140347619Y-129860714D01*
X140204761Y-129860714D01*
X140109523Y-129908333D01*
X139490476Y-130527380D02*
X139585714Y-130479761D01*
X139633333Y-130432142D01*
X139680952Y-130336904D01*
X139680952Y-130051190D01*
X139633333Y-129955952D01*
X139585714Y-129908333D01*
X139490476Y-129860714D01*
X139347619Y-129860714D01*
X139252380Y-129908333D01*
X139204761Y-129955952D01*
X139157142Y-130051190D01*
X139157142Y-130336904D01*
X139204761Y-130432142D01*
X139252380Y-130479761D01*
X139347619Y-130527380D01*
X139490476Y-130527380D01*
X138728571Y-130527380D02*
X138728571Y-129860714D01*
X138728571Y-130051190D02*
X138680952Y-129955952D01*
X138633333Y-129908333D01*
X138538095Y-129860714D01*
X138442857Y-129860714D01*
X152633333Y-131510714D02*
X152395238Y-132177380D01*
X152157142Y-131510714D01*
X151252380Y-132177380D02*
X151823809Y-132177380D01*
X151538095Y-132177380D02*
X151538095Y-131177380D01*
X151633333Y-131320238D01*
X151728571Y-131415476D01*
X151823809Y-131463095D01*
X150823809Y-132082142D02*
X150776190Y-132129761D01*
X150823809Y-132177380D01*
X150871428Y-132129761D01*
X150823809Y-132082142D01*
X150823809Y-132177380D01*
X149823809Y-132177380D02*
X150395238Y-132177380D01*
X150109523Y-132177380D02*
X150109523Y-131177380D01*
X150204761Y-131320238D01*
X150300000Y-131415476D01*
X150395238Y-131463095D01*
X148680952Y-131272619D02*
X148633333Y-131225000D01*
X148538095Y-131177380D01*
X148300000Y-131177380D01*
X148204761Y-131225000D01*
X148157142Y-131272619D01*
X148109523Y-131367857D01*
X148109523Y-131463095D01*
X148157142Y-131605952D01*
X148728571Y-132177380D01*
X148109523Y-132177380D01*
X147490476Y-131177380D02*
X147395238Y-131177380D01*
X147300000Y-131225000D01*
X147252380Y-131272619D01*
X147204761Y-131367857D01*
X147157142Y-131558333D01*
X147157142Y-131796428D01*
X147204761Y-131986904D01*
X147252380Y-132082142D01*
X147300000Y-132129761D01*
X147395238Y-132177380D01*
X147490476Y-132177380D01*
X147585714Y-132129761D01*
X147633333Y-132082142D01*
X147680952Y-131986904D01*
X147728571Y-131796428D01*
X147728571Y-131558333D01*
X147680952Y-131367857D01*
X147633333Y-131272619D01*
X147585714Y-131225000D01*
X147490476Y-131177380D01*
X146538095Y-131177380D02*
X146442857Y-131177380D01*
X146347619Y-131225000D01*
X146300000Y-131272619D01*
X146252380Y-131367857D01*
X146204761Y-131558333D01*
X146204761Y-131796428D01*
X146252380Y-131986904D01*
X146300000Y-132082142D01*
X146347619Y-132129761D01*
X146442857Y-132177380D01*
X146538095Y-132177380D01*
X146633333Y-132129761D01*
X146680952Y-132082142D01*
X146728571Y-131986904D01*
X146776190Y-131796428D01*
X146776190Y-131558333D01*
X146728571Y-131367857D01*
X146680952Y-131272619D01*
X146633333Y-131225000D01*
X146538095Y-131177380D01*
X145871428Y-131177380D02*
X145204761Y-131177380D01*
X145633333Y-132177380D01*
X143490476Y-132082142D02*
X143538095Y-132129761D01*
X143680952Y-132177380D01*
X143776190Y-132177380D01*
X143919047Y-132129761D01*
X144014285Y-132034523D01*
X144061904Y-131939285D01*
X144109523Y-131748809D01*
X144109523Y-131605952D01*
X144061904Y-131415476D01*
X144014285Y-131320238D01*
X143919047Y-131225000D01*
X143776190Y-131177380D01*
X143680952Y-131177380D01*
X143538095Y-131225000D01*
X143490476Y-131272619D01*
X143061904Y-132177380D02*
X143061904Y-131510714D01*
X143061904Y-131701190D02*
X143014285Y-131605952D01*
X142966666Y-131558333D01*
X142871428Y-131510714D01*
X142776190Y-131510714D01*
X142061904Y-132129761D02*
X142157142Y-132177380D01*
X142347619Y-132177380D01*
X142442857Y-132129761D01*
X142490476Y-132034523D01*
X142490476Y-131653571D01*
X142442857Y-131558333D01*
X142347619Y-131510714D01*
X142157142Y-131510714D01*
X142061904Y-131558333D01*
X142014285Y-131653571D01*
X142014285Y-131748809D01*
X142490476Y-131844047D01*
X141633333Y-132129761D02*
X141538095Y-132177380D01*
X141347619Y-132177380D01*
X141252380Y-132129761D01*
X141204761Y-132034523D01*
X141204761Y-131986904D01*
X141252380Y-131891666D01*
X141347619Y-131844047D01*
X141490476Y-131844047D01*
X141585714Y-131796428D01*
X141633333Y-131701190D01*
X141633333Y-131653571D01*
X141585714Y-131558333D01*
X141490476Y-131510714D01*
X141347619Y-131510714D01*
X141252380Y-131558333D01*
X140347619Y-132129761D02*
X140442857Y-132177380D01*
X140633333Y-132177380D01*
X140728571Y-132129761D01*
X140776190Y-132082142D01*
X140823809Y-131986904D01*
X140823809Y-131701190D01*
X140776190Y-131605952D01*
X140728571Y-131558333D01*
X140633333Y-131510714D01*
X140442857Y-131510714D01*
X140347619Y-131558333D01*
X139538095Y-132129761D02*
X139633333Y-132177380D01*
X139823809Y-132177380D01*
X139919047Y-132129761D01*
X139966666Y-132034523D01*
X139966666Y-131653571D01*
X139919047Y-131558333D01*
X139823809Y-131510714D01*
X139633333Y-131510714D01*
X139538095Y-131558333D01*
X139490476Y-131653571D01*
X139490476Y-131748809D01*
X139966666Y-131844047D01*
X139061904Y-131510714D02*
X139061904Y-132177380D01*
X139061904Y-131605952D02*
X139014285Y-131558333D01*
X138919047Y-131510714D01*
X138776190Y-131510714D01*
X138680952Y-131558333D01*
X138633333Y-131653571D01*
X138633333Y-132177380D01*
X138300000Y-131510714D02*
X137919047Y-131510714D01*
X138157142Y-131177380D02*
X138157142Y-132034523D01*
X138109523Y-132129761D01*
X138014285Y-132177380D01*
X137919047Y-132177380D01*
%LPC*%
D11*
X137000000Y-120000000D03*
X153000000Y-138000000D03*
X137000000Y-138000000D03*
X153000000Y-120000000D03*
X137000000Y-120000000D03*
X137000000Y-112000000D03*
X153000000Y-112000000D03*
D12*
X141920000Y-138400000D03*
X144460000Y-138400000D03*
D13*
X147000000Y-138400000D03*
M02*
