G04 #@! TF.GenerationSoftware,KiCad,Pcbnew,(5.1.2)-1*
G04 #@! TF.CreationDate,2020-07-25T21:03:26+09:00*
G04 #@! TF.ProjectId,cs,63732e6b-6963-4616-945f-706362585858,v1.1*
G04 #@! TF.SameCoordinates,Original*
G04 #@! TF.FileFunction,Copper,L2,Bot*
G04 #@! TF.FilePolarity,Positive*
%FSLAX46Y46*%
G04 Gerber Fmt 4.6, Leading zero omitted, Abs format (unit mm)*
G04 Created by KiCad (PCBNEW (5.1.2)-1) date 2020-07-25 21:03:26*
%MOMM*%
%LPD*%
G04 APERTURE LIST*
%ADD10O,1.700000X1.700000*%
%ADD11R,1.700000X1.700000*%
%ADD12C,0.800000*%
%ADD13C,0.250000*%
%ADD14C,0.254000*%
G04 APERTURE END LIST*
D10*
X141920000Y-138400000D03*
X144460000Y-138400000D03*
D11*
X147000000Y-138400000D03*
D12*
X143332400Y-126650700D03*
X137393600Y-124655200D03*
X145600000Y-134900000D03*
X150100000Y-135100000D03*
X148400000Y-132900000D03*
X136000000Y-127700000D03*
X137700000Y-135200000D03*
X150400000Y-122500000D03*
X153700000Y-122800000D03*
X146520000Y-126420300D03*
X139474990Y-118709521D03*
X145653600Y-125598000D03*
X139725010Y-122704215D03*
D13*
X141920000Y-126668700D02*
X143314400Y-126668700D01*
X143314400Y-126668700D02*
X143332400Y-126650700D01*
X137393600Y-124655200D02*
X139407100Y-126668700D01*
X139407100Y-126668700D02*
X141920000Y-126668700D01*
X138000000Y-130588700D02*
X141920000Y-126668700D01*
X138000000Y-135400000D02*
X138000000Y-130588700D01*
X141920000Y-138400000D02*
X141000000Y-138400000D01*
X141000000Y-138400000D02*
X138000000Y-135400000D01*
X141920000Y-138400000D02*
X145420000Y-134900000D01*
X145420000Y-134900000D02*
X145600000Y-134900000D01*
X148817500Y-132996300D02*
X148496300Y-132996300D01*
X148496300Y-132996300D02*
X148400000Y-132900000D01*
X150100000Y-135100000D02*
X148400000Y-133400000D01*
X148400000Y-133400000D02*
X148400000Y-132900000D01*
X137393600Y-124655200D02*
X137393600Y-126306400D01*
X137393600Y-126306400D02*
X136000000Y-127700000D01*
X150500000Y-122600000D02*
X150700000Y-122600000D01*
X150400000Y-122500000D02*
X150500000Y-122600000D01*
X150400000Y-122500000D02*
X153400000Y-122500000D01*
X153400000Y-122500000D02*
X153700000Y-122800000D01*
X147000000Y-138400000D02*
X147000000Y-126900300D01*
X147000000Y-126900300D02*
X146520000Y-126420300D01*
X140040675Y-118709521D02*
X139474990Y-118709521D01*
X146520000Y-125188846D02*
X140040675Y-118709521D01*
X146520000Y-126420300D02*
X146520000Y-125188846D01*
X145653600Y-125598000D02*
X142618795Y-125598000D01*
X140125009Y-123104214D02*
X139725010Y-122704215D01*
X142618795Y-125598000D02*
X140125009Y-123104214D01*
D14*
G36*
X145027749Y-124771397D02*
G01*
X144993826Y-124794063D01*
X144949889Y-124838000D01*
X142933597Y-124838000D01*
X140760010Y-122664414D01*
X140760010Y-122602276D01*
X140720236Y-122402317D01*
X140642215Y-122213959D01*
X140528947Y-122044441D01*
X140384784Y-121900278D01*
X140215266Y-121787010D01*
X140026908Y-121708989D01*
X139826949Y-121669215D01*
X139623071Y-121669215D01*
X139423112Y-121708989D01*
X139234754Y-121787010D01*
X139065236Y-121900278D01*
X138921073Y-122044441D01*
X138807805Y-122213959D01*
X138729784Y-122402317D01*
X138690010Y-122602276D01*
X138690010Y-122806154D01*
X138729784Y-123006113D01*
X138807805Y-123194471D01*
X138921073Y-123363989D01*
X139065236Y-123508152D01*
X139234754Y-123621420D01*
X139423112Y-123699441D01*
X139623071Y-123739215D01*
X139685209Y-123739215D01*
X142054996Y-126109003D01*
X142078794Y-126138001D01*
X142107792Y-126161799D01*
X142194518Y-126232974D01*
X142326548Y-126303546D01*
X142469809Y-126347003D01*
X142581462Y-126358000D01*
X142581472Y-126358000D01*
X142618795Y-126361676D01*
X142656117Y-126358000D01*
X144949889Y-126358000D01*
X144993826Y-126401937D01*
X145163344Y-126515205D01*
X145351702Y-126593226D01*
X145505193Y-126623757D01*
X145524774Y-126722198D01*
X145602795Y-126910556D01*
X145716063Y-127080074D01*
X145860226Y-127224237D01*
X146029744Y-127337505D01*
X146218102Y-127415526D01*
X146240001Y-127419882D01*
X146240000Y-136911928D01*
X146150000Y-136911928D01*
X146025518Y-136924188D01*
X145905820Y-136960498D01*
X145795506Y-137019463D01*
X145698815Y-137098815D01*
X145619463Y-137195506D01*
X145560498Y-137305820D01*
X145539607Y-137374687D01*
X145515134Y-137344866D01*
X145289014Y-137159294D01*
X145031034Y-137021401D01*
X144751111Y-136936487D01*
X144532950Y-136915000D01*
X144387050Y-136915000D01*
X144168889Y-136936487D01*
X143888966Y-137021401D01*
X143630986Y-137159294D01*
X143404866Y-137344866D01*
X143219294Y-137570986D01*
X143184799Y-137635523D01*
X143115178Y-137518645D01*
X142920269Y-137302412D01*
X142686920Y-137128359D01*
X142424099Y-137003175D01*
X142276890Y-136958524D01*
X142047000Y-137079845D01*
X142047000Y-138273000D01*
X142067000Y-138273000D01*
X142067000Y-138527000D01*
X142047000Y-138527000D01*
X142047000Y-138547000D01*
X141793000Y-138547000D01*
X141793000Y-138527000D01*
X140599186Y-138527000D01*
X140478519Y-138756891D01*
X140575843Y-139031252D01*
X140724822Y-139281355D01*
X140777684Y-139340000D01*
X138113661Y-139340000D01*
X138347663Y-139105998D01*
X138537537Y-138821831D01*
X138668325Y-138506081D01*
X138735000Y-138170883D01*
X138735000Y-138043109D01*
X140478519Y-138043109D01*
X140599186Y-138273000D01*
X141793000Y-138273000D01*
X141793000Y-137079845D01*
X141563110Y-136958524D01*
X141415901Y-137003175D01*
X141153080Y-137128359D01*
X140919731Y-137302412D01*
X140724822Y-137518645D01*
X140575843Y-137768748D01*
X140478519Y-138043109D01*
X138735000Y-138043109D01*
X138735000Y-137829117D01*
X138668325Y-137493919D01*
X138537537Y-137178169D01*
X138347663Y-136894002D01*
X138105998Y-136652337D01*
X137821831Y-136462463D01*
X137506081Y-136331675D01*
X137170883Y-136265000D01*
X136829117Y-136265000D01*
X136493919Y-136331675D01*
X136178169Y-136462463D01*
X135894002Y-136652337D01*
X135660000Y-136886339D01*
X135660000Y-121113661D01*
X135894002Y-121347663D01*
X136178169Y-121537537D01*
X136493919Y-121668325D01*
X136829117Y-121735000D01*
X137170883Y-121735000D01*
X137506081Y-121668325D01*
X137821831Y-121537537D01*
X138105998Y-121347663D01*
X138347663Y-121105998D01*
X138537537Y-120821831D01*
X138668325Y-120506081D01*
X138735000Y-120170883D01*
X138735000Y-120127000D01*
X140383353Y-120127000D01*
X145027749Y-124771397D01*
X145027749Y-124771397D01*
G37*
X145027749Y-124771397D02*
X144993826Y-124794063D01*
X144949889Y-124838000D01*
X142933597Y-124838000D01*
X140760010Y-122664414D01*
X140760010Y-122602276D01*
X140720236Y-122402317D01*
X140642215Y-122213959D01*
X140528947Y-122044441D01*
X140384784Y-121900278D01*
X140215266Y-121787010D01*
X140026908Y-121708989D01*
X139826949Y-121669215D01*
X139623071Y-121669215D01*
X139423112Y-121708989D01*
X139234754Y-121787010D01*
X139065236Y-121900278D01*
X138921073Y-122044441D01*
X138807805Y-122213959D01*
X138729784Y-122402317D01*
X138690010Y-122602276D01*
X138690010Y-122806154D01*
X138729784Y-123006113D01*
X138807805Y-123194471D01*
X138921073Y-123363989D01*
X139065236Y-123508152D01*
X139234754Y-123621420D01*
X139423112Y-123699441D01*
X139623071Y-123739215D01*
X139685209Y-123739215D01*
X142054996Y-126109003D01*
X142078794Y-126138001D01*
X142107792Y-126161799D01*
X142194518Y-126232974D01*
X142326548Y-126303546D01*
X142469809Y-126347003D01*
X142581462Y-126358000D01*
X142581472Y-126358000D01*
X142618795Y-126361676D01*
X142656117Y-126358000D01*
X144949889Y-126358000D01*
X144993826Y-126401937D01*
X145163344Y-126515205D01*
X145351702Y-126593226D01*
X145505193Y-126623757D01*
X145524774Y-126722198D01*
X145602795Y-126910556D01*
X145716063Y-127080074D01*
X145860226Y-127224237D01*
X146029744Y-127337505D01*
X146218102Y-127415526D01*
X146240001Y-127419882D01*
X146240000Y-136911928D01*
X146150000Y-136911928D01*
X146025518Y-136924188D01*
X145905820Y-136960498D01*
X145795506Y-137019463D01*
X145698815Y-137098815D01*
X145619463Y-137195506D01*
X145560498Y-137305820D01*
X145539607Y-137374687D01*
X145515134Y-137344866D01*
X145289014Y-137159294D01*
X145031034Y-137021401D01*
X144751111Y-136936487D01*
X144532950Y-136915000D01*
X144387050Y-136915000D01*
X144168889Y-136936487D01*
X143888966Y-137021401D01*
X143630986Y-137159294D01*
X143404866Y-137344866D01*
X143219294Y-137570986D01*
X143184799Y-137635523D01*
X143115178Y-137518645D01*
X142920269Y-137302412D01*
X142686920Y-137128359D01*
X142424099Y-137003175D01*
X142276890Y-136958524D01*
X142047000Y-137079845D01*
X142047000Y-138273000D01*
X142067000Y-138273000D01*
X142067000Y-138527000D01*
X142047000Y-138527000D01*
X142047000Y-138547000D01*
X141793000Y-138547000D01*
X141793000Y-138527000D01*
X140599186Y-138527000D01*
X140478519Y-138756891D01*
X140575843Y-139031252D01*
X140724822Y-139281355D01*
X140777684Y-139340000D01*
X138113661Y-139340000D01*
X138347663Y-139105998D01*
X138537537Y-138821831D01*
X138668325Y-138506081D01*
X138735000Y-138170883D01*
X138735000Y-138043109D01*
X140478519Y-138043109D01*
X140599186Y-138273000D01*
X141793000Y-138273000D01*
X141793000Y-137079845D01*
X141563110Y-136958524D01*
X141415901Y-137003175D01*
X141153080Y-137128359D01*
X140919731Y-137302412D01*
X140724822Y-137518645D01*
X140575843Y-137768748D01*
X140478519Y-138043109D01*
X138735000Y-138043109D01*
X138735000Y-137829117D01*
X138668325Y-137493919D01*
X138537537Y-137178169D01*
X138347663Y-136894002D01*
X138105998Y-136652337D01*
X137821831Y-136462463D01*
X137506081Y-136331675D01*
X137170883Y-136265000D01*
X136829117Y-136265000D01*
X136493919Y-136331675D01*
X136178169Y-136462463D01*
X135894002Y-136652337D01*
X135660000Y-136886339D01*
X135660000Y-121113661D01*
X135894002Y-121347663D01*
X136178169Y-121537537D01*
X136493919Y-121668325D01*
X136829117Y-121735000D01*
X137170883Y-121735000D01*
X137506081Y-121668325D01*
X137821831Y-121537537D01*
X138105998Y-121347663D01*
X138347663Y-121105998D01*
X138537537Y-120821831D01*
X138668325Y-120506081D01*
X138735000Y-120170883D01*
X138735000Y-120127000D01*
X140383353Y-120127000D01*
X145027749Y-124771397D01*
G36*
X151265000Y-120170883D02*
G01*
X151331675Y-120506081D01*
X151462463Y-120821831D01*
X151652337Y-121105998D01*
X151894002Y-121347663D01*
X152178169Y-121537537D01*
X152493919Y-121668325D01*
X152829117Y-121735000D01*
X153170883Y-121735000D01*
X153506081Y-121668325D01*
X153821831Y-121537537D01*
X154105998Y-121347663D01*
X154340000Y-121113661D01*
X154340000Y-128967582D01*
X154340001Y-136886340D01*
X154105998Y-136652337D01*
X153821831Y-136462463D01*
X153506081Y-136331675D01*
X153170883Y-136265000D01*
X152829117Y-136265000D01*
X152493919Y-136331675D01*
X152178169Y-136462463D01*
X151894002Y-136652337D01*
X151652337Y-136894002D01*
X151462463Y-137178169D01*
X151331675Y-137493919D01*
X151265000Y-137829117D01*
X151265000Y-138170883D01*
X151331675Y-138506081D01*
X151462463Y-138821831D01*
X151652337Y-139105998D01*
X151886339Y-139340000D01*
X148479208Y-139340000D01*
X148488072Y-139250000D01*
X148488072Y-137550000D01*
X148475812Y-137425518D01*
X148439502Y-137305820D01*
X148380537Y-137195506D01*
X148301185Y-137098815D01*
X148204494Y-137019463D01*
X148094180Y-136960498D01*
X147974482Y-136924188D01*
X147850000Y-136911928D01*
X147760000Y-136911928D01*
X147760000Y-126937633D01*
X147763677Y-126900300D01*
X147749003Y-126751314D01*
X147705546Y-126608053D01*
X147634974Y-126476024D01*
X147619880Y-126457632D01*
X147555000Y-126378575D01*
X147555000Y-126318361D01*
X147515226Y-126118402D01*
X147437205Y-125930044D01*
X147323937Y-125760526D01*
X147280000Y-125716589D01*
X147280000Y-125226168D01*
X147283676Y-125188845D01*
X147280000Y-125151522D01*
X147280000Y-125151513D01*
X147269003Y-125039860D01*
X147225546Y-124896599D01*
X147154974Y-124764570D01*
X147060001Y-124648845D01*
X147031003Y-124625047D01*
X142532955Y-120127000D01*
X151265000Y-120127000D01*
X151265000Y-120170883D01*
X151265000Y-120170883D01*
G37*
X151265000Y-120170883D02*
X151331675Y-120506081D01*
X151462463Y-120821831D01*
X151652337Y-121105998D01*
X151894002Y-121347663D01*
X152178169Y-121537537D01*
X152493919Y-121668325D01*
X152829117Y-121735000D01*
X153170883Y-121735000D01*
X153506081Y-121668325D01*
X153821831Y-121537537D01*
X154105998Y-121347663D01*
X154340000Y-121113661D01*
X154340000Y-128967582D01*
X154340001Y-136886340D01*
X154105998Y-136652337D01*
X153821831Y-136462463D01*
X153506081Y-136331675D01*
X153170883Y-136265000D01*
X152829117Y-136265000D01*
X152493919Y-136331675D01*
X152178169Y-136462463D01*
X151894002Y-136652337D01*
X151652337Y-136894002D01*
X151462463Y-137178169D01*
X151331675Y-137493919D01*
X151265000Y-137829117D01*
X151265000Y-138170883D01*
X151331675Y-138506081D01*
X151462463Y-138821831D01*
X151652337Y-139105998D01*
X151886339Y-139340000D01*
X148479208Y-139340000D01*
X148488072Y-139250000D01*
X148488072Y-137550000D01*
X148475812Y-137425518D01*
X148439502Y-137305820D01*
X148380537Y-137195506D01*
X148301185Y-137098815D01*
X148204494Y-137019463D01*
X148094180Y-136960498D01*
X147974482Y-136924188D01*
X147850000Y-136911928D01*
X147760000Y-136911928D01*
X147760000Y-126937633D01*
X147763677Y-126900300D01*
X147749003Y-126751314D01*
X147705546Y-126608053D01*
X147634974Y-126476024D01*
X147619880Y-126457632D01*
X147555000Y-126378575D01*
X147555000Y-126318361D01*
X147515226Y-126118402D01*
X147437205Y-125930044D01*
X147323937Y-125760526D01*
X147280000Y-125716589D01*
X147280000Y-125226168D01*
X147283676Y-125188845D01*
X147280000Y-125151522D01*
X147280000Y-125151513D01*
X147269003Y-125039860D01*
X147225546Y-124896599D01*
X147154974Y-124764570D01*
X147060001Y-124648845D01*
X147031003Y-124625047D01*
X142532955Y-120127000D01*
X151265000Y-120127000D01*
X151265000Y-120170883D01*
M02*
