G04 #@! TF.GenerationSoftware,KiCad,Pcbnew,(5.1.2)-1*
G04 #@! TF.CreationDate,2020-07-25T21:03:26+09:00*
G04 #@! TF.ProjectId,cs,63732e6b-6963-4616-945f-706362585858,v1.1*
G04 #@! TF.SameCoordinates,Original*
G04 #@! TF.FileFunction,Legend,Top*
G04 #@! TF.FilePolarity,Positive*
%FSLAX46Y46*%
G04 Gerber Fmt 4.6, Leading zero omitted, Abs format (unit mm)*
G04 Created by KiCad (PCBNEW (5.1.2)-1) date 2020-07-25 21:03:26*
%MOMM*%
%LPD*%
G04 APERTURE LIST*
%ADD10C,0.150000*%
%ADD11C,0.066040*%
%ADD12C,0.254000*%
%ADD13C,0.812800*%
%ADD14C,0.120000*%
%ADD15C,2.302000*%
%ADD16R,1.399940X1.501540*%
%ADD17R,2.400700X1.600600*%
%ADD18C,0.100000*%
%ADD19C,0.977000*%
%ADD20R,1.552000X0.552000*%
%ADD21R,0.802000X1.102000*%
%ADD22O,1.802000X1.802000*%
%ADD23R,1.802000X1.802000*%
G04 APERTURE END LIST*
D10*
X140990476Y-136100000D02*
X140914285Y-136061904D01*
X140800000Y-136061904D01*
X140685714Y-136100000D01*
X140609523Y-136176190D01*
X140571428Y-136252380D01*
X140533333Y-136404761D01*
X140533333Y-136519047D01*
X140571428Y-136671428D01*
X140609523Y-136747619D01*
X140685714Y-136823809D01*
X140800000Y-136861904D01*
X140876190Y-136861904D01*
X140990476Y-136823809D01*
X141028571Y-136785714D01*
X141028571Y-136519047D01*
X140876190Y-136519047D01*
X141371428Y-136861904D02*
X141371428Y-136061904D01*
X141828571Y-136861904D01*
X141828571Y-136061904D01*
X142209523Y-136861904D02*
X142209523Y-136061904D01*
X142400000Y-136061904D01*
X142514285Y-136100000D01*
X142590476Y-136176190D01*
X142628571Y-136252380D01*
X142666666Y-136404761D01*
X142666666Y-136519047D01*
X142628571Y-136671428D01*
X142590476Y-136747619D01*
X142514285Y-136823809D01*
X142400000Y-136861904D01*
X142209523Y-136861904D01*
X143700000Y-136061904D02*
X143852380Y-136061904D01*
X143928571Y-136100000D01*
X144004761Y-136176190D01*
X144042857Y-136328571D01*
X144042857Y-136595238D01*
X144004761Y-136747619D01*
X143928571Y-136823809D01*
X143852380Y-136861904D01*
X143700000Y-136861904D01*
X143623809Y-136823809D01*
X143547619Y-136747619D01*
X143509523Y-136595238D01*
X143509523Y-136328571D01*
X143547619Y-136176190D01*
X143623809Y-136100000D01*
X143700000Y-136061904D01*
X144385714Y-136061904D02*
X144385714Y-136709523D01*
X144423809Y-136785714D01*
X144461904Y-136823809D01*
X144538095Y-136861904D01*
X144690476Y-136861904D01*
X144766666Y-136823809D01*
X144804761Y-136785714D01*
X144842857Y-136709523D01*
X144842857Y-136061904D01*
X145109523Y-136061904D02*
X145566666Y-136061904D01*
X145338095Y-136861904D02*
X145338095Y-136061904D01*
X146133333Y-136061904D02*
X146400000Y-136861904D01*
X146666666Y-136061904D01*
X147390476Y-136785714D02*
X147352380Y-136823809D01*
X147238095Y-136861904D01*
X147161904Y-136861904D01*
X147047619Y-136823809D01*
X146971428Y-136747619D01*
X146933333Y-136671428D01*
X146895238Y-136519047D01*
X146895238Y-136404761D01*
X146933333Y-136252380D01*
X146971428Y-136176190D01*
X147047619Y-136100000D01*
X147161904Y-136061904D01*
X147238095Y-136061904D01*
X147352380Y-136100000D01*
X147390476Y-136138095D01*
X148190476Y-136785714D02*
X148152380Y-136823809D01*
X148038095Y-136861904D01*
X147961904Y-136861904D01*
X147847619Y-136823809D01*
X147771428Y-136747619D01*
X147733333Y-136671428D01*
X147695238Y-136519047D01*
X147695238Y-136404761D01*
X147733333Y-136252380D01*
X147771428Y-136176190D01*
X147847619Y-136100000D01*
X147961904Y-136061904D01*
X148038095Y-136061904D01*
X148152380Y-136100000D01*
X148190476Y-136138095D01*
X145904761Y-116371428D02*
X146666666Y-116371428D01*
X147142857Y-116371428D02*
X147904761Y-116371428D01*
X148380952Y-116371428D02*
X149142857Y-116371428D01*
X149619047Y-116371428D02*
X150380952Y-116371428D01*
X150857142Y-116371428D02*
X151619047Y-116371428D01*
X152095238Y-116371428D02*
X152857142Y-116371428D01*
X153333333Y-116371428D02*
X154095238Y-116371428D01*
D11*
X143647700Y-131851920D02*
X142352300Y-131851920D01*
X142352300Y-131851920D02*
X142352300Y-132250700D01*
X143647700Y-132250700D02*
X142352300Y-132250700D01*
X143647700Y-131851920D02*
X143647700Y-132250700D01*
X144049020Y-132850140D02*
X141950980Y-132850140D01*
X141950980Y-132850140D02*
X141950980Y-133149860D01*
X144049020Y-133149860D02*
X141950980Y-133149860D01*
X144049020Y-132850140D02*
X144049020Y-133149860D01*
D12*
X144899920Y-134899920D02*
X144899920Y-131100080D01*
X144899920Y-131100080D02*
X141100080Y-131100080D01*
X141100080Y-131100080D02*
X141100080Y-134899920D01*
X141100080Y-134899920D02*
X144899920Y-134899920D01*
X144899920Y-131851920D02*
X144899920Y-134899920D01*
X144899920Y-134899920D02*
X144348740Y-134899920D01*
X141100080Y-131851920D02*
X141100080Y-134899920D01*
X141100080Y-134899920D02*
X141651260Y-134899920D01*
D13*
X142398331Y-131901398D02*
G75*
G03X143599440Y-131900180I601669J-1098602D01*
G01*
D14*
X136590000Y-131249221D02*
X136590000Y-131574779D01*
X137610000Y-131249221D02*
X137610000Y-131574779D01*
D10*
X147225000Y-129200000D02*
X148575000Y-129200000D01*
X147225000Y-124075000D02*
X142575000Y-124075000D01*
X147225000Y-129325000D02*
X142575000Y-129325000D01*
X147225000Y-124075000D02*
X147225000Y-124300000D01*
X142575000Y-124075000D02*
X142575000Y-124300000D01*
X142575000Y-129325000D02*
X142575000Y-129100000D01*
X147225000Y-129325000D02*
X147225000Y-129200000D01*
D14*
X141710000Y-117475000D02*
X141710000Y-115325000D01*
X138490000Y-117900000D02*
X138490000Y-115325000D01*
X140800000Y-115325000D02*
X141710000Y-115325000D01*
X138490000Y-115325000D02*
X139400000Y-115325000D01*
X144190000Y-111325000D02*
X144190000Y-113475000D01*
X147410000Y-110900000D02*
X147410000Y-113475000D01*
X145100000Y-113475000D02*
X144190000Y-113475000D01*
X147410000Y-113475000D02*
X146500000Y-113475000D01*
X138949221Y-125910000D02*
X139274779Y-125910000D01*
X138949221Y-124890000D02*
X139274779Y-124890000D01*
X141874779Y-121590000D02*
X141549221Y-121590000D01*
X141874779Y-122610000D02*
X141549221Y-122610000D01*
X146615000Y-131125221D02*
X146615000Y-131450779D01*
X147635000Y-131125221D02*
X147635000Y-131450779D01*
X149290000Y-111925221D02*
X149290000Y-112250779D01*
X150310000Y-111925221D02*
X150310000Y-112250779D01*
X150850779Y-125090000D02*
X150525221Y-125090000D01*
X150850779Y-126110000D02*
X150525221Y-126110000D01*
X150850779Y-129790000D02*
X150525221Y-129790000D01*
X150850779Y-130810000D02*
X150525221Y-130810000D01*
X139274779Y-127990000D02*
X138949221Y-127990000D01*
X139274779Y-129010000D02*
X138949221Y-129010000D01*
X138949221Y-127410000D02*
X139274779Y-127410000D01*
X138949221Y-126390000D02*
X139274779Y-126390000D01*
X143590000Y-116525221D02*
X143590000Y-116850779D01*
X144610000Y-116525221D02*
X144610000Y-116850779D01*
X140410000Y-131562779D02*
X140410000Y-131237221D01*
X139390000Y-131562779D02*
X139390000Y-131237221D01*
X140410000Y-134562779D02*
X140410000Y-134237221D01*
X139390000Y-134562779D02*
X139390000Y-134237221D01*
X148330000Y-137070000D02*
X148330000Y-138400000D01*
X147000000Y-137070000D02*
X148330000Y-137070000D01*
X145730000Y-137070000D02*
X145730000Y-139730000D01*
X145730000Y-139730000D02*
X140590000Y-139730000D01*
X145730000Y-137070000D02*
X140590000Y-137070000D01*
X140590000Y-137070000D02*
X140590000Y-139730000D01*
X143403000Y-122835000D02*
X145688000Y-122835000D01*
X143403000Y-121365000D02*
X143403000Y-122835000D01*
X145688000Y-121365000D02*
X143403000Y-121365000D01*
X149243000Y-124635000D02*
X151528000Y-124635000D01*
X149243000Y-123165000D02*
X149243000Y-124635000D01*
X151528000Y-123165000D02*
X149243000Y-123165000D01*
X138949221Y-124410000D02*
X139274779Y-124410000D01*
X138949221Y-123390000D02*
X139274779Y-123390000D01*
X150525221Y-127710000D02*
X150850779Y-127710000D01*
X150525221Y-126690000D02*
X150850779Y-126690000D01*
X147610000Y-134450779D02*
X147610000Y-134125221D01*
X146590000Y-134450779D02*
X146590000Y-134125221D01*
X147925221Y-122610000D02*
X148250779Y-122610000D01*
X147925221Y-121590000D02*
X148250779Y-121590000D01*
X150850779Y-128190000D02*
X150525221Y-128190000D01*
X150850779Y-129210000D02*
X150525221Y-129210000D01*
X150525221Y-132310000D02*
X150850779Y-132310000D01*
X150525221Y-131290000D02*
X150850779Y-131290000D01*
X142090000Y-116549221D02*
X142090000Y-116874779D01*
X143110000Y-116549221D02*
X143110000Y-116874779D01*
X143910000Y-112174779D02*
X143910000Y-111849221D01*
X142890000Y-112174779D02*
X142890000Y-111849221D01*
X138210000Y-116762779D02*
X138210000Y-116437221D01*
X137190000Y-116762779D02*
X137190000Y-116437221D01*
X147790000Y-111925221D02*
X147790000Y-112250779D01*
X148810000Y-111925221D02*
X148810000Y-112250779D01*
D10*
X146152380Y-133495238D02*
X145676190Y-133828571D01*
X146152380Y-134066666D02*
X145152380Y-134066666D01*
X145152380Y-133685714D01*
X145200000Y-133590476D01*
X145247619Y-133542857D01*
X145342857Y-133495238D01*
X145485714Y-133495238D01*
X145580952Y-133542857D01*
X145628571Y-133590476D01*
X145676190Y-133685714D01*
X145676190Y-134066666D01*
X145152380Y-133209523D02*
X146152380Y-132876190D01*
X145152380Y-132542857D01*
X146152380Y-131685714D02*
X146152380Y-132257142D01*
X146152380Y-131971428D02*
X145152380Y-131971428D01*
X145295238Y-132066666D01*
X145390476Y-132161904D01*
X145438095Y-132257142D01*
X137457142Y-133966166D02*
X137504761Y-134013785D01*
X137552380Y-134156642D01*
X137552380Y-134251880D01*
X137504761Y-134394738D01*
X137409523Y-134489976D01*
X137314285Y-134537595D01*
X137123809Y-134585214D01*
X136980952Y-134585214D01*
X136790476Y-134537595D01*
X136695238Y-134489976D01*
X136600000Y-134394738D01*
X136552380Y-134251880D01*
X136552380Y-134156642D01*
X136600000Y-134013785D01*
X136647619Y-133966166D01*
X136552380Y-133632833D02*
X136552380Y-133013785D01*
X136933333Y-133347119D01*
X136933333Y-133204261D01*
X136980952Y-133109023D01*
X137028571Y-133061404D01*
X137123809Y-133013785D01*
X137361904Y-133013785D01*
X137457142Y-133061404D01*
X137504761Y-133109023D01*
X137552380Y-133204261D01*
X137552380Y-133489976D01*
X137504761Y-133585214D01*
X137457142Y-133632833D01*
X144138095Y-122952380D02*
X144138095Y-123761904D01*
X144185714Y-123857142D01*
X144233333Y-123904761D01*
X144328571Y-123952380D01*
X144519047Y-123952380D01*
X144614285Y-123904761D01*
X144661904Y-123857142D01*
X144709523Y-123761904D01*
X144709523Y-122952380D01*
X145090476Y-122952380D02*
X145709523Y-122952380D01*
X145376190Y-123333333D01*
X145519047Y-123333333D01*
X145614285Y-123380952D01*
X145661904Y-123428571D01*
X145709523Y-123523809D01*
X145709523Y-123761904D01*
X145661904Y-123857142D01*
X145614285Y-123904761D01*
X145519047Y-123952380D01*
X145233333Y-123952380D01*
X145138095Y-123904761D01*
X145090476Y-123857142D01*
X140852380Y-114861904D02*
X141661904Y-114861904D01*
X141757142Y-114814285D01*
X141804761Y-114766666D01*
X141852380Y-114671428D01*
X141852380Y-114480952D01*
X141804761Y-114385714D01*
X141757142Y-114338095D01*
X141661904Y-114290476D01*
X140852380Y-114290476D01*
X140947619Y-113861904D02*
X140900000Y-113814285D01*
X140852380Y-113719047D01*
X140852380Y-113480952D01*
X140900000Y-113385714D01*
X140947619Y-113338095D01*
X141042857Y-113290476D01*
X141138095Y-113290476D01*
X141280952Y-113338095D01*
X141852380Y-113909523D01*
X141852380Y-113290476D01*
X146452380Y-115261904D02*
X147261904Y-115261904D01*
X147357142Y-115214285D01*
X147404761Y-115166666D01*
X147452380Y-115071428D01*
X147452380Y-114880952D01*
X147404761Y-114785714D01*
X147357142Y-114738095D01*
X147261904Y-114690476D01*
X146452380Y-114690476D01*
X147452380Y-113690476D02*
X147452380Y-114261904D01*
X147452380Y-113976190D02*
X146452380Y-113976190D01*
X146595238Y-114071428D01*
X146690476Y-114166666D01*
X146738095Y-114261904D01*
X135857142Y-125852380D02*
X135523809Y-125376190D01*
X135285714Y-125852380D02*
X135285714Y-124852380D01*
X135666666Y-124852380D01*
X135761904Y-124900000D01*
X135809523Y-124947619D01*
X135857142Y-125042857D01*
X135857142Y-125185714D01*
X135809523Y-125280952D01*
X135761904Y-125328571D01*
X135666666Y-125376190D01*
X135285714Y-125376190D01*
X136809523Y-125852380D02*
X136238095Y-125852380D01*
X136523809Y-125852380D02*
X136523809Y-124852380D01*
X136428571Y-124995238D01*
X136333333Y-125090476D01*
X136238095Y-125138095D01*
X137761904Y-125852380D02*
X137190476Y-125852380D01*
X137476190Y-125852380D02*
X137476190Y-124852380D01*
X137380952Y-124995238D01*
X137285714Y-125090476D01*
X137190476Y-125138095D01*
X138156642Y-122552380D02*
X137823309Y-122076190D01*
X137585214Y-122552380D02*
X137585214Y-121552380D01*
X137966166Y-121552380D01*
X138061404Y-121600000D01*
X138109023Y-121647619D01*
X138156642Y-121742857D01*
X138156642Y-121885714D01*
X138109023Y-121980952D01*
X138061404Y-122028571D01*
X137966166Y-122076190D01*
X137585214Y-122076190D01*
X139109023Y-122552380D02*
X138537595Y-122552380D01*
X138823309Y-122552380D02*
X138823309Y-121552380D01*
X138728071Y-121695238D01*
X138632833Y-121790476D01*
X138537595Y-121838095D01*
X139728071Y-121552380D02*
X139823309Y-121552380D01*
X139918547Y-121600000D01*
X139966166Y-121647619D01*
X140013785Y-121742857D01*
X140061404Y-121933333D01*
X140061404Y-122171428D01*
X140013785Y-122361904D01*
X139966166Y-122457142D01*
X139918547Y-122504761D01*
X139823309Y-122552380D01*
X139728071Y-122552380D01*
X139632833Y-122504761D01*
X139585214Y-122457142D01*
X139537595Y-122361904D01*
X139489976Y-122171428D01*
X139489976Y-121933333D01*
X139537595Y-121742857D01*
X139585214Y-121647619D01*
X139632833Y-121600000D01*
X139728071Y-121552380D01*
X148952380Y-131467166D02*
X148476190Y-131800500D01*
X148952380Y-132038595D02*
X147952380Y-132038595D01*
X147952380Y-131657642D01*
X148000000Y-131562404D01*
X148047619Y-131514785D01*
X148142857Y-131467166D01*
X148285714Y-131467166D01*
X148380952Y-131514785D01*
X148428571Y-131562404D01*
X148476190Y-131657642D01*
X148476190Y-132038595D01*
X148952380Y-130990976D02*
X148952380Y-130800500D01*
X148904761Y-130705261D01*
X148857142Y-130657642D01*
X148714285Y-130562404D01*
X148523809Y-130514785D01*
X148142857Y-130514785D01*
X148047619Y-130562404D01*
X148000000Y-130610023D01*
X147952380Y-130705261D01*
X147952380Y-130895738D01*
X148000000Y-130990976D01*
X148047619Y-131038595D01*
X148142857Y-131086214D01*
X148380952Y-131086214D01*
X148476190Y-131038595D01*
X148523809Y-130990976D01*
X148571428Y-130895738D01*
X148571428Y-130705261D01*
X148523809Y-130610023D01*
X148476190Y-130562404D01*
X148380952Y-130514785D01*
X150352380Y-114667166D02*
X149876190Y-115000500D01*
X150352380Y-115238595D02*
X149352380Y-115238595D01*
X149352380Y-114857642D01*
X149400000Y-114762404D01*
X149447619Y-114714785D01*
X149542857Y-114667166D01*
X149685714Y-114667166D01*
X149780952Y-114714785D01*
X149828571Y-114762404D01*
X149876190Y-114857642D01*
X149876190Y-115238595D01*
X149780952Y-114095738D02*
X149733333Y-114190976D01*
X149685714Y-114238595D01*
X149590476Y-114286214D01*
X149542857Y-114286214D01*
X149447619Y-114238595D01*
X149400000Y-114190976D01*
X149352380Y-114095738D01*
X149352380Y-113905261D01*
X149400000Y-113810023D01*
X149447619Y-113762404D01*
X149542857Y-113714785D01*
X149590476Y-113714785D01*
X149685714Y-113762404D01*
X149733333Y-113810023D01*
X149780952Y-113905261D01*
X149780952Y-114095738D01*
X149828571Y-114190976D01*
X149876190Y-114238595D01*
X149971428Y-114286214D01*
X150161904Y-114286214D01*
X150257142Y-114238595D01*
X150304761Y-114190976D01*
X150352380Y-114095738D01*
X150352380Y-113905261D01*
X150304761Y-113810023D01*
X150257142Y-113762404D01*
X150161904Y-113714785D01*
X149971428Y-113714785D01*
X149876190Y-113762404D01*
X149828571Y-113810023D01*
X149780952Y-113905261D01*
X152908833Y-126152380D02*
X152575500Y-125676190D01*
X152337404Y-126152380D02*
X152337404Y-125152380D01*
X152718357Y-125152380D01*
X152813595Y-125200000D01*
X152861214Y-125247619D01*
X152908833Y-125342857D01*
X152908833Y-125485714D01*
X152861214Y-125580952D01*
X152813595Y-125628571D01*
X152718357Y-125676190D01*
X152337404Y-125676190D01*
X153242166Y-125152380D02*
X153908833Y-125152380D01*
X153480261Y-126152380D01*
X152933833Y-130852380D02*
X152600500Y-130376190D01*
X152362404Y-130852380D02*
X152362404Y-129852380D01*
X152743357Y-129852380D01*
X152838595Y-129900000D01*
X152886214Y-129947619D01*
X152933833Y-130042857D01*
X152933833Y-130185714D01*
X152886214Y-130280952D01*
X152838595Y-130328571D01*
X152743357Y-130376190D01*
X152362404Y-130376190D01*
X153790976Y-129852380D02*
X153600500Y-129852380D01*
X153505261Y-129900000D01*
X153457642Y-129947619D01*
X153362404Y-130090476D01*
X153314785Y-130280952D01*
X153314785Y-130661904D01*
X153362404Y-130757142D01*
X153410023Y-130804761D01*
X153505261Y-130852380D01*
X153695738Y-130852380D01*
X153790976Y-130804761D01*
X153838595Y-130757142D01*
X153886214Y-130661904D01*
X153886214Y-130423809D01*
X153838595Y-130328571D01*
X153790976Y-130280952D01*
X153695738Y-130233333D01*
X153505261Y-130233333D01*
X153410023Y-130280952D01*
X153362404Y-130328571D01*
X153314785Y-130423809D01*
X136533333Y-128952380D02*
X136200000Y-128476190D01*
X135961904Y-128952380D02*
X135961904Y-127952380D01*
X136342857Y-127952380D01*
X136438095Y-128000000D01*
X136485714Y-128047619D01*
X136533333Y-128142857D01*
X136533333Y-128285714D01*
X136485714Y-128380952D01*
X136438095Y-128428571D01*
X136342857Y-128476190D01*
X135961904Y-128476190D01*
X137438095Y-127952380D02*
X136961904Y-127952380D01*
X136914285Y-128428571D01*
X136961904Y-128380952D01*
X137057142Y-128333333D01*
X137295238Y-128333333D01*
X137390476Y-128380952D01*
X137438095Y-128428571D01*
X137485714Y-128523809D01*
X137485714Y-128761904D01*
X137438095Y-128857142D01*
X137390476Y-128904761D01*
X137295238Y-128952380D01*
X137057142Y-128952380D01*
X136961904Y-128904761D01*
X136914285Y-128857142D01*
X136532833Y-127452380D02*
X136199500Y-126976190D01*
X135961404Y-127452380D02*
X135961404Y-126452380D01*
X136342357Y-126452380D01*
X136437595Y-126500000D01*
X136485214Y-126547619D01*
X136532833Y-126642857D01*
X136532833Y-126785714D01*
X136485214Y-126880952D01*
X136437595Y-126928571D01*
X136342357Y-126976190D01*
X135961404Y-126976190D01*
X137389976Y-126785714D02*
X137389976Y-127452380D01*
X137151880Y-126404761D02*
X136913785Y-127119047D01*
X137532833Y-127119047D01*
X144752380Y-119267166D02*
X144276190Y-119600500D01*
X144752380Y-119838595D02*
X143752380Y-119838595D01*
X143752380Y-119457642D01*
X143800000Y-119362404D01*
X143847619Y-119314785D01*
X143942857Y-119267166D01*
X144085714Y-119267166D01*
X144180952Y-119314785D01*
X144228571Y-119362404D01*
X144276190Y-119457642D01*
X144276190Y-119838595D01*
X143752380Y-118933833D02*
X143752380Y-118314785D01*
X144133333Y-118648119D01*
X144133333Y-118505261D01*
X144180952Y-118410023D01*
X144228571Y-118362404D01*
X144323809Y-118314785D01*
X144561904Y-118314785D01*
X144657142Y-118362404D01*
X144704761Y-118410023D01*
X144752380Y-118505261D01*
X144752380Y-118790976D01*
X144704761Y-118886214D01*
X144657142Y-118933833D01*
X138922380Y-131566666D02*
X138446190Y-131900000D01*
X138922380Y-132138095D02*
X137922380Y-132138095D01*
X137922380Y-131757142D01*
X137970000Y-131661904D01*
X138017619Y-131614285D01*
X138112857Y-131566666D01*
X138255714Y-131566666D01*
X138350952Y-131614285D01*
X138398571Y-131661904D01*
X138446190Y-131757142D01*
X138446190Y-132138095D01*
X138017619Y-131185714D02*
X137970000Y-131138095D01*
X137922380Y-131042857D01*
X137922380Y-130804761D01*
X137970000Y-130709523D01*
X138017619Y-130661904D01*
X138112857Y-130614285D01*
X138208095Y-130614285D01*
X138350952Y-130661904D01*
X138922380Y-131233333D01*
X138922380Y-130614285D01*
X138922380Y-134566666D02*
X138446190Y-134900000D01*
X138922380Y-135138095D02*
X137922380Y-135138095D01*
X137922380Y-134757142D01*
X137970000Y-134661904D01*
X138017619Y-134614285D01*
X138112857Y-134566666D01*
X138255714Y-134566666D01*
X138350952Y-134614285D01*
X138398571Y-134661904D01*
X138446190Y-134757142D01*
X138446190Y-135138095D01*
X138922380Y-133614285D02*
X138922380Y-134185714D01*
X138922380Y-133900000D02*
X137922380Y-133900000D01*
X138065238Y-133995238D01*
X138160476Y-134090476D01*
X138208095Y-134185714D01*
X148782380Y-138733333D02*
X149496666Y-138733333D01*
X149639523Y-138780952D01*
X149734761Y-138876190D01*
X149782380Y-139019047D01*
X149782380Y-139114285D01*
X149782380Y-137733333D02*
X149782380Y-138304761D01*
X149782380Y-138019047D02*
X148782380Y-138019047D01*
X148925238Y-138114285D01*
X149020476Y-138209523D01*
X149068095Y-138304761D01*
X144062404Y-121152380D02*
X144062404Y-120152380D01*
X144300500Y-120152380D01*
X144443357Y-120200000D01*
X144538595Y-120295238D01*
X144586214Y-120390476D01*
X144633833Y-120580952D01*
X144633833Y-120723809D01*
X144586214Y-120914285D01*
X144538595Y-121009523D01*
X144443357Y-121104761D01*
X144300500Y-121152380D01*
X144062404Y-121152380D01*
X145014785Y-120247619D02*
X145062404Y-120200000D01*
X145157642Y-120152380D01*
X145395738Y-120152380D01*
X145490976Y-120200000D01*
X145538595Y-120247619D01*
X145586214Y-120342857D01*
X145586214Y-120438095D01*
X145538595Y-120580952D01*
X144967166Y-121152380D01*
X145586214Y-121152380D01*
X152389904Y-124352380D02*
X152389904Y-123352380D01*
X152628000Y-123352380D01*
X152770857Y-123400000D01*
X152866095Y-123495238D01*
X152913714Y-123590476D01*
X152961333Y-123780952D01*
X152961333Y-123923809D01*
X152913714Y-124114285D01*
X152866095Y-124209523D01*
X152770857Y-124304761D01*
X152628000Y-124352380D01*
X152389904Y-124352380D01*
X153913714Y-124352380D02*
X153342285Y-124352380D01*
X153628000Y-124352380D02*
X153628000Y-123352380D01*
X153532761Y-123495238D01*
X153437523Y-123590476D01*
X153342285Y-123638095D01*
X135757142Y-124357142D02*
X135709523Y-124404761D01*
X135566666Y-124452380D01*
X135471428Y-124452380D01*
X135328571Y-124404761D01*
X135233333Y-124309523D01*
X135185714Y-124214285D01*
X135138095Y-124023809D01*
X135138095Y-123880952D01*
X135185714Y-123690476D01*
X135233333Y-123595238D01*
X135328571Y-123500000D01*
X135471428Y-123452380D01*
X135566666Y-123452380D01*
X135709523Y-123500000D01*
X135757142Y-123547619D01*
X136709523Y-124452380D02*
X136138095Y-124452380D01*
X136423809Y-124452380D02*
X136423809Y-123452380D01*
X136328571Y-123595238D01*
X136233333Y-123690476D01*
X136138095Y-123738095D01*
X137661904Y-124452380D02*
X137090476Y-124452380D01*
X137376190Y-124452380D02*
X137376190Y-123452380D01*
X137280952Y-123595238D01*
X137185714Y-123690476D01*
X137090476Y-123738095D01*
X152932642Y-127557142D02*
X152885023Y-127604761D01*
X152742166Y-127652380D01*
X152646928Y-127652380D01*
X152504071Y-127604761D01*
X152408833Y-127509523D01*
X152361214Y-127414285D01*
X152313595Y-127223809D01*
X152313595Y-127080952D01*
X152361214Y-126890476D01*
X152408833Y-126795238D01*
X152504071Y-126700000D01*
X152646928Y-126652380D01*
X152742166Y-126652380D01*
X152885023Y-126700000D01*
X152932642Y-126747619D01*
X153885023Y-127652380D02*
X153313595Y-127652380D01*
X153599309Y-127652380D02*
X153599309Y-126652380D01*
X153504071Y-126795238D01*
X153408833Y-126890476D01*
X153313595Y-126938095D01*
X154504071Y-126652380D02*
X154599309Y-126652380D01*
X154694547Y-126700000D01*
X154742166Y-126747619D01*
X154789785Y-126842857D01*
X154837404Y-127033333D01*
X154837404Y-127271428D01*
X154789785Y-127461904D01*
X154742166Y-127557142D01*
X154694547Y-127604761D01*
X154599309Y-127652380D01*
X154504071Y-127652380D01*
X154408833Y-127604761D01*
X154361214Y-127557142D01*
X154313595Y-127461904D01*
X154265976Y-127271428D01*
X154265976Y-127033333D01*
X154313595Y-126842857D01*
X154361214Y-126747619D01*
X154408833Y-126700000D01*
X154504071Y-126652380D01*
X148857142Y-134467166D02*
X148904761Y-134514785D01*
X148952380Y-134657642D01*
X148952380Y-134752880D01*
X148904761Y-134895738D01*
X148809523Y-134990976D01*
X148714285Y-135038595D01*
X148523809Y-135086214D01*
X148380952Y-135086214D01*
X148190476Y-135038595D01*
X148095238Y-134990976D01*
X148000000Y-134895738D01*
X147952380Y-134752880D01*
X147952380Y-134657642D01*
X148000000Y-134514785D01*
X148047619Y-134467166D01*
X148952380Y-133990976D02*
X148952380Y-133800500D01*
X148904761Y-133705261D01*
X148857142Y-133657642D01*
X148714285Y-133562404D01*
X148523809Y-133514785D01*
X148142857Y-133514785D01*
X148047619Y-133562404D01*
X148000000Y-133610023D01*
X147952380Y-133705261D01*
X147952380Y-133895738D01*
X148000000Y-133990976D01*
X148047619Y-134038595D01*
X148142857Y-134086214D01*
X148380952Y-134086214D01*
X148476190Y-134038595D01*
X148523809Y-133990976D01*
X148571428Y-133895738D01*
X148571428Y-133705261D01*
X148523809Y-133610023D01*
X148476190Y-133562404D01*
X148380952Y-133514785D01*
X150333833Y-122457142D02*
X150286214Y-122504761D01*
X150143357Y-122552380D01*
X150048119Y-122552380D01*
X149905261Y-122504761D01*
X149810023Y-122409523D01*
X149762404Y-122314285D01*
X149714785Y-122123809D01*
X149714785Y-121980952D01*
X149762404Y-121790476D01*
X149810023Y-121695238D01*
X149905261Y-121600000D01*
X150048119Y-121552380D01*
X150143357Y-121552380D01*
X150286214Y-121600000D01*
X150333833Y-121647619D01*
X150905261Y-121980952D02*
X150810023Y-121933333D01*
X150762404Y-121885714D01*
X150714785Y-121790476D01*
X150714785Y-121742857D01*
X150762404Y-121647619D01*
X150810023Y-121600000D01*
X150905261Y-121552380D01*
X151095738Y-121552380D01*
X151190976Y-121600000D01*
X151238595Y-121647619D01*
X151286214Y-121742857D01*
X151286214Y-121790476D01*
X151238595Y-121885714D01*
X151190976Y-121933333D01*
X151095738Y-121980952D01*
X150905261Y-121980952D01*
X150810023Y-122028571D01*
X150762404Y-122076190D01*
X150714785Y-122171428D01*
X150714785Y-122361904D01*
X150762404Y-122457142D01*
X150810023Y-122504761D01*
X150905261Y-122552380D01*
X151095738Y-122552380D01*
X151190976Y-122504761D01*
X151238595Y-122457142D01*
X151286214Y-122361904D01*
X151286214Y-122171428D01*
X151238595Y-122076190D01*
X151190976Y-122028571D01*
X151095738Y-121980952D01*
X152908833Y-129157142D02*
X152861214Y-129204761D01*
X152718357Y-129252380D01*
X152623119Y-129252380D01*
X152480261Y-129204761D01*
X152385023Y-129109523D01*
X152337404Y-129014285D01*
X152289785Y-128823809D01*
X152289785Y-128680952D01*
X152337404Y-128490476D01*
X152385023Y-128395238D01*
X152480261Y-128300000D01*
X152623119Y-128252380D01*
X152718357Y-128252380D01*
X152861214Y-128300000D01*
X152908833Y-128347619D01*
X153242166Y-128252380D02*
X153908833Y-128252380D01*
X153480261Y-129252380D01*
X152933833Y-132257142D02*
X152886214Y-132304761D01*
X152743357Y-132352380D01*
X152648119Y-132352380D01*
X152505261Y-132304761D01*
X152410023Y-132209523D01*
X152362404Y-132114285D01*
X152314785Y-131923809D01*
X152314785Y-131780952D01*
X152362404Y-131590476D01*
X152410023Y-131495238D01*
X152505261Y-131400000D01*
X152648119Y-131352380D01*
X152743357Y-131352380D01*
X152886214Y-131400000D01*
X152933833Y-131447619D01*
X153790976Y-131352380D02*
X153600500Y-131352380D01*
X153505261Y-131400000D01*
X153457642Y-131447619D01*
X153362404Y-131590476D01*
X153314785Y-131780952D01*
X153314785Y-132161904D01*
X153362404Y-132257142D01*
X153410023Y-132304761D01*
X153505261Y-132352380D01*
X153695738Y-132352380D01*
X153790976Y-132304761D01*
X153838595Y-132257142D01*
X153886214Y-132161904D01*
X153886214Y-131923809D01*
X153838595Y-131828571D01*
X153790976Y-131780952D01*
X153695738Y-131733333D01*
X153505261Y-131733333D01*
X153410023Y-131780952D01*
X153362404Y-131828571D01*
X153314785Y-131923809D01*
X143057142Y-119266666D02*
X143104761Y-119314285D01*
X143152380Y-119457142D01*
X143152380Y-119552380D01*
X143104761Y-119695238D01*
X143009523Y-119790476D01*
X142914285Y-119838095D01*
X142723809Y-119885714D01*
X142580952Y-119885714D01*
X142390476Y-119838095D01*
X142295238Y-119790476D01*
X142200000Y-119695238D01*
X142152380Y-119552380D01*
X142152380Y-119457142D01*
X142200000Y-119314285D01*
X142247619Y-119266666D01*
X142152380Y-118361904D02*
X142152380Y-118838095D01*
X142628571Y-118885714D01*
X142580952Y-118838095D01*
X142533333Y-118742857D01*
X142533333Y-118504761D01*
X142580952Y-118409523D01*
X142628571Y-118361904D01*
X142723809Y-118314285D01*
X142961904Y-118314285D01*
X143057142Y-118361904D01*
X143104761Y-118409523D01*
X143152380Y-118504761D01*
X143152380Y-118742857D01*
X143104761Y-118838095D01*
X143057142Y-118885714D01*
X142457142Y-112166666D02*
X142504761Y-112214285D01*
X142552380Y-112357142D01*
X142552380Y-112452380D01*
X142504761Y-112595238D01*
X142409523Y-112690476D01*
X142314285Y-112738095D01*
X142123809Y-112785714D01*
X141980952Y-112785714D01*
X141790476Y-112738095D01*
X141695238Y-112690476D01*
X141600000Y-112595238D01*
X141552380Y-112452380D01*
X141552380Y-112357142D01*
X141600000Y-112214285D01*
X141647619Y-112166666D01*
X141885714Y-111309523D02*
X142552380Y-111309523D01*
X141504761Y-111547619D02*
X142219047Y-111785714D01*
X142219047Y-111166666D01*
X136707142Y-116766666D02*
X136754761Y-116814285D01*
X136802380Y-116957142D01*
X136802380Y-117052380D01*
X136754761Y-117195238D01*
X136659523Y-117290476D01*
X136564285Y-117338095D01*
X136373809Y-117385714D01*
X136230952Y-117385714D01*
X136040476Y-117338095D01*
X135945238Y-117290476D01*
X135850000Y-117195238D01*
X135802380Y-117052380D01*
X135802380Y-116957142D01*
X135850000Y-116814285D01*
X135897619Y-116766666D01*
X135897619Y-116385714D02*
X135850000Y-116338095D01*
X135802380Y-116242857D01*
X135802380Y-116004761D01*
X135850000Y-115909523D01*
X135897619Y-115861904D01*
X135992857Y-115814285D01*
X136088095Y-115814285D01*
X136230952Y-115861904D01*
X136802380Y-116433333D01*
X136802380Y-115814285D01*
X148657142Y-114667166D02*
X148704761Y-114714785D01*
X148752380Y-114857642D01*
X148752380Y-114952880D01*
X148704761Y-115095738D01*
X148609523Y-115190976D01*
X148514285Y-115238595D01*
X148323809Y-115286214D01*
X148180952Y-115286214D01*
X147990476Y-115238595D01*
X147895238Y-115190976D01*
X147800000Y-115095738D01*
X147752380Y-114952880D01*
X147752380Y-114857642D01*
X147800000Y-114714785D01*
X147847619Y-114667166D01*
X148752380Y-113714785D02*
X148752380Y-114286214D01*
X148752380Y-114000500D02*
X147752380Y-114000500D01*
X147895238Y-114095738D01*
X147990476Y-114190976D01*
X148038095Y-114286214D01*
%LPC*%
D15*
X137000000Y-120000000D03*
X153000000Y-138000000D03*
X137000000Y-138000000D03*
D16*
X144148080Y-130950220D03*
D17*
X143000000Y-134798320D03*
D16*
X141851920Y-130950220D03*
D18*
G36*
X137405691Y-131712176D02*
G01*
X137429401Y-131715693D01*
X137452652Y-131721517D01*
X137475220Y-131729592D01*
X137496889Y-131739841D01*
X137517448Y-131752164D01*
X137536701Y-131766442D01*
X137554461Y-131782539D01*
X137570558Y-131800299D01*
X137584836Y-131819552D01*
X137597159Y-131840111D01*
X137607408Y-131861780D01*
X137615483Y-131884348D01*
X137621307Y-131907599D01*
X137624824Y-131931309D01*
X137626000Y-131955250D01*
X137626000Y-132443750D01*
X137624824Y-132467691D01*
X137621307Y-132491401D01*
X137615483Y-132514652D01*
X137607408Y-132537220D01*
X137597159Y-132558889D01*
X137584836Y-132579448D01*
X137570558Y-132598701D01*
X137554461Y-132616461D01*
X137536701Y-132632558D01*
X137517448Y-132646836D01*
X137496889Y-132659159D01*
X137475220Y-132669408D01*
X137452652Y-132677483D01*
X137429401Y-132683307D01*
X137405691Y-132686824D01*
X137381750Y-132688000D01*
X136818250Y-132688000D01*
X136794309Y-132686824D01*
X136770599Y-132683307D01*
X136747348Y-132677483D01*
X136724780Y-132669408D01*
X136703111Y-132659159D01*
X136682552Y-132646836D01*
X136663299Y-132632558D01*
X136645539Y-132616461D01*
X136629442Y-132598701D01*
X136615164Y-132579448D01*
X136602841Y-132558889D01*
X136592592Y-132537220D01*
X136584517Y-132514652D01*
X136578693Y-132491401D01*
X136575176Y-132467691D01*
X136574000Y-132443750D01*
X136574000Y-131955250D01*
X136575176Y-131931309D01*
X136578693Y-131907599D01*
X136584517Y-131884348D01*
X136592592Y-131861780D01*
X136602841Y-131840111D01*
X136615164Y-131819552D01*
X136629442Y-131800299D01*
X136645539Y-131782539D01*
X136663299Y-131766442D01*
X136682552Y-131752164D01*
X136703111Y-131739841D01*
X136724780Y-131729592D01*
X136747348Y-131721517D01*
X136770599Y-131715693D01*
X136794309Y-131712176D01*
X136818250Y-131711000D01*
X137381750Y-131711000D01*
X137405691Y-131712176D01*
X137405691Y-131712176D01*
G37*
D19*
X137100000Y-132199500D03*
D18*
G36*
X137405691Y-130137176D02*
G01*
X137429401Y-130140693D01*
X137452652Y-130146517D01*
X137475220Y-130154592D01*
X137496889Y-130164841D01*
X137517448Y-130177164D01*
X137536701Y-130191442D01*
X137554461Y-130207539D01*
X137570558Y-130225299D01*
X137584836Y-130244552D01*
X137597159Y-130265111D01*
X137607408Y-130286780D01*
X137615483Y-130309348D01*
X137621307Y-130332599D01*
X137624824Y-130356309D01*
X137626000Y-130380250D01*
X137626000Y-130868750D01*
X137624824Y-130892691D01*
X137621307Y-130916401D01*
X137615483Y-130939652D01*
X137607408Y-130962220D01*
X137597159Y-130983889D01*
X137584836Y-131004448D01*
X137570558Y-131023701D01*
X137554461Y-131041461D01*
X137536701Y-131057558D01*
X137517448Y-131071836D01*
X137496889Y-131084159D01*
X137475220Y-131094408D01*
X137452652Y-131102483D01*
X137429401Y-131108307D01*
X137405691Y-131111824D01*
X137381750Y-131113000D01*
X136818250Y-131113000D01*
X136794309Y-131111824D01*
X136770599Y-131108307D01*
X136747348Y-131102483D01*
X136724780Y-131094408D01*
X136703111Y-131084159D01*
X136682552Y-131071836D01*
X136663299Y-131057558D01*
X136645539Y-131041461D01*
X136629442Y-131023701D01*
X136615164Y-131004448D01*
X136602841Y-130983889D01*
X136592592Y-130962220D01*
X136584517Y-130939652D01*
X136578693Y-130916401D01*
X136575176Y-130892691D01*
X136574000Y-130868750D01*
X136574000Y-130380250D01*
X136575176Y-130356309D01*
X136578693Y-130332599D01*
X136584517Y-130309348D01*
X136592592Y-130286780D01*
X136602841Y-130265111D01*
X136615164Y-130244552D01*
X136629442Y-130225299D01*
X136645539Y-130207539D01*
X136663299Y-130191442D01*
X136682552Y-130177164D01*
X136703111Y-130164841D01*
X136724780Y-130154592D01*
X136747348Y-130146517D01*
X136770599Y-130140693D01*
X136794309Y-130137176D01*
X136818250Y-130136000D01*
X137381750Y-130136000D01*
X137405691Y-130137176D01*
X137405691Y-130137176D01*
G37*
D19*
X137100000Y-130624500D03*
D15*
X153000000Y-120000000D03*
X137000000Y-120000000D03*
X137000000Y-112000000D03*
X153000000Y-112000000D03*
D20*
X141950000Y-128650000D03*
X141950000Y-128000000D03*
X141950000Y-127350000D03*
X141950000Y-126700000D03*
X141950000Y-126050000D03*
X141950000Y-125400000D03*
X141950000Y-124750000D03*
X147850000Y-124750000D03*
X147850000Y-125400000D03*
X147850000Y-126050000D03*
X147850000Y-126700000D03*
X147850000Y-127350000D03*
X147850000Y-128000000D03*
X147850000Y-128650000D03*
D21*
X140100000Y-115200000D03*
X141050000Y-117600000D03*
X139150000Y-117600000D03*
X145800000Y-113600000D03*
X144850000Y-111200000D03*
X146750000Y-111200000D03*
D18*
G36*
X140167691Y-124875176D02*
G01*
X140191401Y-124878693D01*
X140214652Y-124884517D01*
X140237220Y-124892592D01*
X140258889Y-124902841D01*
X140279448Y-124915164D01*
X140298701Y-124929442D01*
X140316461Y-124945539D01*
X140332558Y-124963299D01*
X140346836Y-124982552D01*
X140359159Y-125003111D01*
X140369408Y-125024780D01*
X140377483Y-125047348D01*
X140383307Y-125070599D01*
X140386824Y-125094309D01*
X140388000Y-125118250D01*
X140388000Y-125681750D01*
X140386824Y-125705691D01*
X140383307Y-125729401D01*
X140377483Y-125752652D01*
X140369408Y-125775220D01*
X140359159Y-125796889D01*
X140346836Y-125817448D01*
X140332558Y-125836701D01*
X140316461Y-125854461D01*
X140298701Y-125870558D01*
X140279448Y-125884836D01*
X140258889Y-125897159D01*
X140237220Y-125907408D01*
X140214652Y-125915483D01*
X140191401Y-125921307D01*
X140167691Y-125924824D01*
X140143750Y-125926000D01*
X139655250Y-125926000D01*
X139631309Y-125924824D01*
X139607599Y-125921307D01*
X139584348Y-125915483D01*
X139561780Y-125907408D01*
X139540111Y-125897159D01*
X139519552Y-125884836D01*
X139500299Y-125870558D01*
X139482539Y-125854461D01*
X139466442Y-125836701D01*
X139452164Y-125817448D01*
X139439841Y-125796889D01*
X139429592Y-125775220D01*
X139421517Y-125752652D01*
X139415693Y-125729401D01*
X139412176Y-125705691D01*
X139411000Y-125681750D01*
X139411000Y-125118250D01*
X139412176Y-125094309D01*
X139415693Y-125070599D01*
X139421517Y-125047348D01*
X139429592Y-125024780D01*
X139439841Y-125003111D01*
X139452164Y-124982552D01*
X139466442Y-124963299D01*
X139482539Y-124945539D01*
X139500299Y-124929442D01*
X139519552Y-124915164D01*
X139540111Y-124902841D01*
X139561780Y-124892592D01*
X139584348Y-124884517D01*
X139607599Y-124878693D01*
X139631309Y-124875176D01*
X139655250Y-124874000D01*
X140143750Y-124874000D01*
X140167691Y-124875176D01*
X140167691Y-124875176D01*
G37*
D19*
X139899500Y-125400000D03*
D18*
G36*
X138592691Y-124875176D02*
G01*
X138616401Y-124878693D01*
X138639652Y-124884517D01*
X138662220Y-124892592D01*
X138683889Y-124902841D01*
X138704448Y-124915164D01*
X138723701Y-124929442D01*
X138741461Y-124945539D01*
X138757558Y-124963299D01*
X138771836Y-124982552D01*
X138784159Y-125003111D01*
X138794408Y-125024780D01*
X138802483Y-125047348D01*
X138808307Y-125070599D01*
X138811824Y-125094309D01*
X138813000Y-125118250D01*
X138813000Y-125681750D01*
X138811824Y-125705691D01*
X138808307Y-125729401D01*
X138802483Y-125752652D01*
X138794408Y-125775220D01*
X138784159Y-125796889D01*
X138771836Y-125817448D01*
X138757558Y-125836701D01*
X138741461Y-125854461D01*
X138723701Y-125870558D01*
X138704448Y-125884836D01*
X138683889Y-125897159D01*
X138662220Y-125907408D01*
X138639652Y-125915483D01*
X138616401Y-125921307D01*
X138592691Y-125924824D01*
X138568750Y-125926000D01*
X138080250Y-125926000D01*
X138056309Y-125924824D01*
X138032599Y-125921307D01*
X138009348Y-125915483D01*
X137986780Y-125907408D01*
X137965111Y-125897159D01*
X137944552Y-125884836D01*
X137925299Y-125870558D01*
X137907539Y-125854461D01*
X137891442Y-125836701D01*
X137877164Y-125817448D01*
X137864841Y-125796889D01*
X137854592Y-125775220D01*
X137846517Y-125752652D01*
X137840693Y-125729401D01*
X137837176Y-125705691D01*
X137836000Y-125681750D01*
X137836000Y-125118250D01*
X137837176Y-125094309D01*
X137840693Y-125070599D01*
X137846517Y-125047348D01*
X137854592Y-125024780D01*
X137864841Y-125003111D01*
X137877164Y-124982552D01*
X137891442Y-124963299D01*
X137907539Y-124945539D01*
X137925299Y-124929442D01*
X137944552Y-124915164D01*
X137965111Y-124902841D01*
X137986780Y-124892592D01*
X138009348Y-124884517D01*
X138032599Y-124878693D01*
X138056309Y-124875176D01*
X138080250Y-124874000D01*
X138568750Y-124874000D01*
X138592691Y-124875176D01*
X138592691Y-124875176D01*
G37*
D19*
X138324500Y-125400000D03*
D18*
G36*
X141192691Y-121575176D02*
G01*
X141216401Y-121578693D01*
X141239652Y-121584517D01*
X141262220Y-121592592D01*
X141283889Y-121602841D01*
X141304448Y-121615164D01*
X141323701Y-121629442D01*
X141341461Y-121645539D01*
X141357558Y-121663299D01*
X141371836Y-121682552D01*
X141384159Y-121703111D01*
X141394408Y-121724780D01*
X141402483Y-121747348D01*
X141408307Y-121770599D01*
X141411824Y-121794309D01*
X141413000Y-121818250D01*
X141413000Y-122381750D01*
X141411824Y-122405691D01*
X141408307Y-122429401D01*
X141402483Y-122452652D01*
X141394408Y-122475220D01*
X141384159Y-122496889D01*
X141371836Y-122517448D01*
X141357558Y-122536701D01*
X141341461Y-122554461D01*
X141323701Y-122570558D01*
X141304448Y-122584836D01*
X141283889Y-122597159D01*
X141262220Y-122607408D01*
X141239652Y-122615483D01*
X141216401Y-122621307D01*
X141192691Y-122624824D01*
X141168750Y-122626000D01*
X140680250Y-122626000D01*
X140656309Y-122624824D01*
X140632599Y-122621307D01*
X140609348Y-122615483D01*
X140586780Y-122607408D01*
X140565111Y-122597159D01*
X140544552Y-122584836D01*
X140525299Y-122570558D01*
X140507539Y-122554461D01*
X140491442Y-122536701D01*
X140477164Y-122517448D01*
X140464841Y-122496889D01*
X140454592Y-122475220D01*
X140446517Y-122452652D01*
X140440693Y-122429401D01*
X140437176Y-122405691D01*
X140436000Y-122381750D01*
X140436000Y-121818250D01*
X140437176Y-121794309D01*
X140440693Y-121770599D01*
X140446517Y-121747348D01*
X140454592Y-121724780D01*
X140464841Y-121703111D01*
X140477164Y-121682552D01*
X140491442Y-121663299D01*
X140507539Y-121645539D01*
X140525299Y-121629442D01*
X140544552Y-121615164D01*
X140565111Y-121602841D01*
X140586780Y-121592592D01*
X140609348Y-121584517D01*
X140632599Y-121578693D01*
X140656309Y-121575176D01*
X140680250Y-121574000D01*
X141168750Y-121574000D01*
X141192691Y-121575176D01*
X141192691Y-121575176D01*
G37*
D19*
X140924500Y-122100000D03*
D18*
G36*
X142767691Y-121575176D02*
G01*
X142791401Y-121578693D01*
X142814652Y-121584517D01*
X142837220Y-121592592D01*
X142858889Y-121602841D01*
X142879448Y-121615164D01*
X142898701Y-121629442D01*
X142916461Y-121645539D01*
X142932558Y-121663299D01*
X142946836Y-121682552D01*
X142959159Y-121703111D01*
X142969408Y-121724780D01*
X142977483Y-121747348D01*
X142983307Y-121770599D01*
X142986824Y-121794309D01*
X142988000Y-121818250D01*
X142988000Y-122381750D01*
X142986824Y-122405691D01*
X142983307Y-122429401D01*
X142977483Y-122452652D01*
X142969408Y-122475220D01*
X142959159Y-122496889D01*
X142946836Y-122517448D01*
X142932558Y-122536701D01*
X142916461Y-122554461D01*
X142898701Y-122570558D01*
X142879448Y-122584836D01*
X142858889Y-122597159D01*
X142837220Y-122607408D01*
X142814652Y-122615483D01*
X142791401Y-122621307D01*
X142767691Y-122624824D01*
X142743750Y-122626000D01*
X142255250Y-122626000D01*
X142231309Y-122624824D01*
X142207599Y-122621307D01*
X142184348Y-122615483D01*
X142161780Y-122607408D01*
X142140111Y-122597159D01*
X142119552Y-122584836D01*
X142100299Y-122570558D01*
X142082539Y-122554461D01*
X142066442Y-122536701D01*
X142052164Y-122517448D01*
X142039841Y-122496889D01*
X142029592Y-122475220D01*
X142021517Y-122452652D01*
X142015693Y-122429401D01*
X142012176Y-122405691D01*
X142011000Y-122381750D01*
X142011000Y-121818250D01*
X142012176Y-121794309D01*
X142015693Y-121770599D01*
X142021517Y-121747348D01*
X142029592Y-121724780D01*
X142039841Y-121703111D01*
X142052164Y-121682552D01*
X142066442Y-121663299D01*
X142082539Y-121645539D01*
X142100299Y-121629442D01*
X142119552Y-121615164D01*
X142140111Y-121602841D01*
X142161780Y-121592592D01*
X142184348Y-121584517D01*
X142207599Y-121578693D01*
X142231309Y-121575176D01*
X142255250Y-121574000D01*
X142743750Y-121574000D01*
X142767691Y-121575176D01*
X142767691Y-121575176D01*
G37*
D19*
X142499500Y-122100000D03*
D18*
G36*
X147430691Y-131588176D02*
G01*
X147454401Y-131591693D01*
X147477652Y-131597517D01*
X147500220Y-131605592D01*
X147521889Y-131615841D01*
X147542448Y-131628164D01*
X147561701Y-131642442D01*
X147579461Y-131658539D01*
X147595558Y-131676299D01*
X147609836Y-131695552D01*
X147622159Y-131716111D01*
X147632408Y-131737780D01*
X147640483Y-131760348D01*
X147646307Y-131783599D01*
X147649824Y-131807309D01*
X147651000Y-131831250D01*
X147651000Y-132319750D01*
X147649824Y-132343691D01*
X147646307Y-132367401D01*
X147640483Y-132390652D01*
X147632408Y-132413220D01*
X147622159Y-132434889D01*
X147609836Y-132455448D01*
X147595558Y-132474701D01*
X147579461Y-132492461D01*
X147561701Y-132508558D01*
X147542448Y-132522836D01*
X147521889Y-132535159D01*
X147500220Y-132545408D01*
X147477652Y-132553483D01*
X147454401Y-132559307D01*
X147430691Y-132562824D01*
X147406750Y-132564000D01*
X146843250Y-132564000D01*
X146819309Y-132562824D01*
X146795599Y-132559307D01*
X146772348Y-132553483D01*
X146749780Y-132545408D01*
X146728111Y-132535159D01*
X146707552Y-132522836D01*
X146688299Y-132508558D01*
X146670539Y-132492461D01*
X146654442Y-132474701D01*
X146640164Y-132455448D01*
X146627841Y-132434889D01*
X146617592Y-132413220D01*
X146609517Y-132390652D01*
X146603693Y-132367401D01*
X146600176Y-132343691D01*
X146599000Y-132319750D01*
X146599000Y-131831250D01*
X146600176Y-131807309D01*
X146603693Y-131783599D01*
X146609517Y-131760348D01*
X146617592Y-131737780D01*
X146627841Y-131716111D01*
X146640164Y-131695552D01*
X146654442Y-131676299D01*
X146670539Y-131658539D01*
X146688299Y-131642442D01*
X146707552Y-131628164D01*
X146728111Y-131615841D01*
X146749780Y-131605592D01*
X146772348Y-131597517D01*
X146795599Y-131591693D01*
X146819309Y-131588176D01*
X146843250Y-131587000D01*
X147406750Y-131587000D01*
X147430691Y-131588176D01*
X147430691Y-131588176D01*
G37*
D19*
X147125000Y-132075500D03*
D18*
G36*
X147430691Y-130013176D02*
G01*
X147454401Y-130016693D01*
X147477652Y-130022517D01*
X147500220Y-130030592D01*
X147521889Y-130040841D01*
X147542448Y-130053164D01*
X147561701Y-130067442D01*
X147579461Y-130083539D01*
X147595558Y-130101299D01*
X147609836Y-130120552D01*
X147622159Y-130141111D01*
X147632408Y-130162780D01*
X147640483Y-130185348D01*
X147646307Y-130208599D01*
X147649824Y-130232309D01*
X147651000Y-130256250D01*
X147651000Y-130744750D01*
X147649824Y-130768691D01*
X147646307Y-130792401D01*
X147640483Y-130815652D01*
X147632408Y-130838220D01*
X147622159Y-130859889D01*
X147609836Y-130880448D01*
X147595558Y-130899701D01*
X147579461Y-130917461D01*
X147561701Y-130933558D01*
X147542448Y-130947836D01*
X147521889Y-130960159D01*
X147500220Y-130970408D01*
X147477652Y-130978483D01*
X147454401Y-130984307D01*
X147430691Y-130987824D01*
X147406750Y-130989000D01*
X146843250Y-130989000D01*
X146819309Y-130987824D01*
X146795599Y-130984307D01*
X146772348Y-130978483D01*
X146749780Y-130970408D01*
X146728111Y-130960159D01*
X146707552Y-130947836D01*
X146688299Y-130933558D01*
X146670539Y-130917461D01*
X146654442Y-130899701D01*
X146640164Y-130880448D01*
X146627841Y-130859889D01*
X146617592Y-130838220D01*
X146609517Y-130815652D01*
X146603693Y-130792401D01*
X146600176Y-130768691D01*
X146599000Y-130744750D01*
X146599000Y-130256250D01*
X146600176Y-130232309D01*
X146603693Y-130208599D01*
X146609517Y-130185348D01*
X146617592Y-130162780D01*
X146627841Y-130141111D01*
X146640164Y-130120552D01*
X146654442Y-130101299D01*
X146670539Y-130083539D01*
X146688299Y-130067442D01*
X146707552Y-130053164D01*
X146728111Y-130040841D01*
X146749780Y-130030592D01*
X146772348Y-130022517D01*
X146795599Y-130016693D01*
X146819309Y-130013176D01*
X146843250Y-130012000D01*
X147406750Y-130012000D01*
X147430691Y-130013176D01*
X147430691Y-130013176D01*
G37*
D19*
X147125000Y-130500500D03*
D18*
G36*
X150105691Y-112388176D02*
G01*
X150129401Y-112391693D01*
X150152652Y-112397517D01*
X150175220Y-112405592D01*
X150196889Y-112415841D01*
X150217448Y-112428164D01*
X150236701Y-112442442D01*
X150254461Y-112458539D01*
X150270558Y-112476299D01*
X150284836Y-112495552D01*
X150297159Y-112516111D01*
X150307408Y-112537780D01*
X150315483Y-112560348D01*
X150321307Y-112583599D01*
X150324824Y-112607309D01*
X150326000Y-112631250D01*
X150326000Y-113119750D01*
X150324824Y-113143691D01*
X150321307Y-113167401D01*
X150315483Y-113190652D01*
X150307408Y-113213220D01*
X150297159Y-113234889D01*
X150284836Y-113255448D01*
X150270558Y-113274701D01*
X150254461Y-113292461D01*
X150236701Y-113308558D01*
X150217448Y-113322836D01*
X150196889Y-113335159D01*
X150175220Y-113345408D01*
X150152652Y-113353483D01*
X150129401Y-113359307D01*
X150105691Y-113362824D01*
X150081750Y-113364000D01*
X149518250Y-113364000D01*
X149494309Y-113362824D01*
X149470599Y-113359307D01*
X149447348Y-113353483D01*
X149424780Y-113345408D01*
X149403111Y-113335159D01*
X149382552Y-113322836D01*
X149363299Y-113308558D01*
X149345539Y-113292461D01*
X149329442Y-113274701D01*
X149315164Y-113255448D01*
X149302841Y-113234889D01*
X149292592Y-113213220D01*
X149284517Y-113190652D01*
X149278693Y-113167401D01*
X149275176Y-113143691D01*
X149274000Y-113119750D01*
X149274000Y-112631250D01*
X149275176Y-112607309D01*
X149278693Y-112583599D01*
X149284517Y-112560348D01*
X149292592Y-112537780D01*
X149302841Y-112516111D01*
X149315164Y-112495552D01*
X149329442Y-112476299D01*
X149345539Y-112458539D01*
X149363299Y-112442442D01*
X149382552Y-112428164D01*
X149403111Y-112415841D01*
X149424780Y-112405592D01*
X149447348Y-112397517D01*
X149470599Y-112391693D01*
X149494309Y-112388176D01*
X149518250Y-112387000D01*
X150081750Y-112387000D01*
X150105691Y-112388176D01*
X150105691Y-112388176D01*
G37*
D19*
X149800000Y-112875500D03*
D18*
G36*
X150105691Y-110813176D02*
G01*
X150129401Y-110816693D01*
X150152652Y-110822517D01*
X150175220Y-110830592D01*
X150196889Y-110840841D01*
X150217448Y-110853164D01*
X150236701Y-110867442D01*
X150254461Y-110883539D01*
X150270558Y-110901299D01*
X150284836Y-110920552D01*
X150297159Y-110941111D01*
X150307408Y-110962780D01*
X150315483Y-110985348D01*
X150321307Y-111008599D01*
X150324824Y-111032309D01*
X150326000Y-111056250D01*
X150326000Y-111544750D01*
X150324824Y-111568691D01*
X150321307Y-111592401D01*
X150315483Y-111615652D01*
X150307408Y-111638220D01*
X150297159Y-111659889D01*
X150284836Y-111680448D01*
X150270558Y-111699701D01*
X150254461Y-111717461D01*
X150236701Y-111733558D01*
X150217448Y-111747836D01*
X150196889Y-111760159D01*
X150175220Y-111770408D01*
X150152652Y-111778483D01*
X150129401Y-111784307D01*
X150105691Y-111787824D01*
X150081750Y-111789000D01*
X149518250Y-111789000D01*
X149494309Y-111787824D01*
X149470599Y-111784307D01*
X149447348Y-111778483D01*
X149424780Y-111770408D01*
X149403111Y-111760159D01*
X149382552Y-111747836D01*
X149363299Y-111733558D01*
X149345539Y-111717461D01*
X149329442Y-111699701D01*
X149315164Y-111680448D01*
X149302841Y-111659889D01*
X149292592Y-111638220D01*
X149284517Y-111615652D01*
X149278693Y-111592401D01*
X149275176Y-111568691D01*
X149274000Y-111544750D01*
X149274000Y-111056250D01*
X149275176Y-111032309D01*
X149278693Y-111008599D01*
X149284517Y-110985348D01*
X149292592Y-110962780D01*
X149302841Y-110941111D01*
X149315164Y-110920552D01*
X149329442Y-110901299D01*
X149345539Y-110883539D01*
X149363299Y-110867442D01*
X149382552Y-110853164D01*
X149403111Y-110840841D01*
X149424780Y-110830592D01*
X149447348Y-110822517D01*
X149470599Y-110816693D01*
X149494309Y-110813176D01*
X149518250Y-110812000D01*
X150081750Y-110812000D01*
X150105691Y-110813176D01*
X150105691Y-110813176D01*
G37*
D19*
X149800000Y-111300500D03*
D18*
G36*
X150168691Y-125075176D02*
G01*
X150192401Y-125078693D01*
X150215652Y-125084517D01*
X150238220Y-125092592D01*
X150259889Y-125102841D01*
X150280448Y-125115164D01*
X150299701Y-125129442D01*
X150317461Y-125145539D01*
X150333558Y-125163299D01*
X150347836Y-125182552D01*
X150360159Y-125203111D01*
X150370408Y-125224780D01*
X150378483Y-125247348D01*
X150384307Y-125270599D01*
X150387824Y-125294309D01*
X150389000Y-125318250D01*
X150389000Y-125881750D01*
X150387824Y-125905691D01*
X150384307Y-125929401D01*
X150378483Y-125952652D01*
X150370408Y-125975220D01*
X150360159Y-125996889D01*
X150347836Y-126017448D01*
X150333558Y-126036701D01*
X150317461Y-126054461D01*
X150299701Y-126070558D01*
X150280448Y-126084836D01*
X150259889Y-126097159D01*
X150238220Y-126107408D01*
X150215652Y-126115483D01*
X150192401Y-126121307D01*
X150168691Y-126124824D01*
X150144750Y-126126000D01*
X149656250Y-126126000D01*
X149632309Y-126124824D01*
X149608599Y-126121307D01*
X149585348Y-126115483D01*
X149562780Y-126107408D01*
X149541111Y-126097159D01*
X149520552Y-126084836D01*
X149501299Y-126070558D01*
X149483539Y-126054461D01*
X149467442Y-126036701D01*
X149453164Y-126017448D01*
X149440841Y-125996889D01*
X149430592Y-125975220D01*
X149422517Y-125952652D01*
X149416693Y-125929401D01*
X149413176Y-125905691D01*
X149412000Y-125881750D01*
X149412000Y-125318250D01*
X149413176Y-125294309D01*
X149416693Y-125270599D01*
X149422517Y-125247348D01*
X149430592Y-125224780D01*
X149440841Y-125203111D01*
X149453164Y-125182552D01*
X149467442Y-125163299D01*
X149483539Y-125145539D01*
X149501299Y-125129442D01*
X149520552Y-125115164D01*
X149541111Y-125102841D01*
X149562780Y-125092592D01*
X149585348Y-125084517D01*
X149608599Y-125078693D01*
X149632309Y-125075176D01*
X149656250Y-125074000D01*
X150144750Y-125074000D01*
X150168691Y-125075176D01*
X150168691Y-125075176D01*
G37*
D19*
X149900500Y-125600000D03*
D18*
G36*
X151743691Y-125075176D02*
G01*
X151767401Y-125078693D01*
X151790652Y-125084517D01*
X151813220Y-125092592D01*
X151834889Y-125102841D01*
X151855448Y-125115164D01*
X151874701Y-125129442D01*
X151892461Y-125145539D01*
X151908558Y-125163299D01*
X151922836Y-125182552D01*
X151935159Y-125203111D01*
X151945408Y-125224780D01*
X151953483Y-125247348D01*
X151959307Y-125270599D01*
X151962824Y-125294309D01*
X151964000Y-125318250D01*
X151964000Y-125881750D01*
X151962824Y-125905691D01*
X151959307Y-125929401D01*
X151953483Y-125952652D01*
X151945408Y-125975220D01*
X151935159Y-125996889D01*
X151922836Y-126017448D01*
X151908558Y-126036701D01*
X151892461Y-126054461D01*
X151874701Y-126070558D01*
X151855448Y-126084836D01*
X151834889Y-126097159D01*
X151813220Y-126107408D01*
X151790652Y-126115483D01*
X151767401Y-126121307D01*
X151743691Y-126124824D01*
X151719750Y-126126000D01*
X151231250Y-126126000D01*
X151207309Y-126124824D01*
X151183599Y-126121307D01*
X151160348Y-126115483D01*
X151137780Y-126107408D01*
X151116111Y-126097159D01*
X151095552Y-126084836D01*
X151076299Y-126070558D01*
X151058539Y-126054461D01*
X151042442Y-126036701D01*
X151028164Y-126017448D01*
X151015841Y-125996889D01*
X151005592Y-125975220D01*
X150997517Y-125952652D01*
X150991693Y-125929401D01*
X150988176Y-125905691D01*
X150987000Y-125881750D01*
X150987000Y-125318250D01*
X150988176Y-125294309D01*
X150991693Y-125270599D01*
X150997517Y-125247348D01*
X151005592Y-125224780D01*
X151015841Y-125203111D01*
X151028164Y-125182552D01*
X151042442Y-125163299D01*
X151058539Y-125145539D01*
X151076299Y-125129442D01*
X151095552Y-125115164D01*
X151116111Y-125102841D01*
X151137780Y-125092592D01*
X151160348Y-125084517D01*
X151183599Y-125078693D01*
X151207309Y-125075176D01*
X151231250Y-125074000D01*
X151719750Y-125074000D01*
X151743691Y-125075176D01*
X151743691Y-125075176D01*
G37*
D19*
X151475500Y-125600000D03*
D18*
G36*
X150168691Y-129775176D02*
G01*
X150192401Y-129778693D01*
X150215652Y-129784517D01*
X150238220Y-129792592D01*
X150259889Y-129802841D01*
X150280448Y-129815164D01*
X150299701Y-129829442D01*
X150317461Y-129845539D01*
X150333558Y-129863299D01*
X150347836Y-129882552D01*
X150360159Y-129903111D01*
X150370408Y-129924780D01*
X150378483Y-129947348D01*
X150384307Y-129970599D01*
X150387824Y-129994309D01*
X150389000Y-130018250D01*
X150389000Y-130581750D01*
X150387824Y-130605691D01*
X150384307Y-130629401D01*
X150378483Y-130652652D01*
X150370408Y-130675220D01*
X150360159Y-130696889D01*
X150347836Y-130717448D01*
X150333558Y-130736701D01*
X150317461Y-130754461D01*
X150299701Y-130770558D01*
X150280448Y-130784836D01*
X150259889Y-130797159D01*
X150238220Y-130807408D01*
X150215652Y-130815483D01*
X150192401Y-130821307D01*
X150168691Y-130824824D01*
X150144750Y-130826000D01*
X149656250Y-130826000D01*
X149632309Y-130824824D01*
X149608599Y-130821307D01*
X149585348Y-130815483D01*
X149562780Y-130807408D01*
X149541111Y-130797159D01*
X149520552Y-130784836D01*
X149501299Y-130770558D01*
X149483539Y-130754461D01*
X149467442Y-130736701D01*
X149453164Y-130717448D01*
X149440841Y-130696889D01*
X149430592Y-130675220D01*
X149422517Y-130652652D01*
X149416693Y-130629401D01*
X149413176Y-130605691D01*
X149412000Y-130581750D01*
X149412000Y-130018250D01*
X149413176Y-129994309D01*
X149416693Y-129970599D01*
X149422517Y-129947348D01*
X149430592Y-129924780D01*
X149440841Y-129903111D01*
X149453164Y-129882552D01*
X149467442Y-129863299D01*
X149483539Y-129845539D01*
X149501299Y-129829442D01*
X149520552Y-129815164D01*
X149541111Y-129802841D01*
X149562780Y-129792592D01*
X149585348Y-129784517D01*
X149608599Y-129778693D01*
X149632309Y-129775176D01*
X149656250Y-129774000D01*
X150144750Y-129774000D01*
X150168691Y-129775176D01*
X150168691Y-129775176D01*
G37*
D19*
X149900500Y-130300000D03*
D18*
G36*
X151743691Y-129775176D02*
G01*
X151767401Y-129778693D01*
X151790652Y-129784517D01*
X151813220Y-129792592D01*
X151834889Y-129802841D01*
X151855448Y-129815164D01*
X151874701Y-129829442D01*
X151892461Y-129845539D01*
X151908558Y-129863299D01*
X151922836Y-129882552D01*
X151935159Y-129903111D01*
X151945408Y-129924780D01*
X151953483Y-129947348D01*
X151959307Y-129970599D01*
X151962824Y-129994309D01*
X151964000Y-130018250D01*
X151964000Y-130581750D01*
X151962824Y-130605691D01*
X151959307Y-130629401D01*
X151953483Y-130652652D01*
X151945408Y-130675220D01*
X151935159Y-130696889D01*
X151922836Y-130717448D01*
X151908558Y-130736701D01*
X151892461Y-130754461D01*
X151874701Y-130770558D01*
X151855448Y-130784836D01*
X151834889Y-130797159D01*
X151813220Y-130807408D01*
X151790652Y-130815483D01*
X151767401Y-130821307D01*
X151743691Y-130824824D01*
X151719750Y-130826000D01*
X151231250Y-130826000D01*
X151207309Y-130824824D01*
X151183599Y-130821307D01*
X151160348Y-130815483D01*
X151137780Y-130807408D01*
X151116111Y-130797159D01*
X151095552Y-130784836D01*
X151076299Y-130770558D01*
X151058539Y-130754461D01*
X151042442Y-130736701D01*
X151028164Y-130717448D01*
X151015841Y-130696889D01*
X151005592Y-130675220D01*
X150997517Y-130652652D01*
X150991693Y-130629401D01*
X150988176Y-130605691D01*
X150987000Y-130581750D01*
X150987000Y-130018250D01*
X150988176Y-129994309D01*
X150991693Y-129970599D01*
X150997517Y-129947348D01*
X151005592Y-129924780D01*
X151015841Y-129903111D01*
X151028164Y-129882552D01*
X151042442Y-129863299D01*
X151058539Y-129845539D01*
X151076299Y-129829442D01*
X151095552Y-129815164D01*
X151116111Y-129802841D01*
X151137780Y-129792592D01*
X151160348Y-129784517D01*
X151183599Y-129778693D01*
X151207309Y-129775176D01*
X151231250Y-129774000D01*
X151719750Y-129774000D01*
X151743691Y-129775176D01*
X151743691Y-129775176D01*
G37*
D19*
X151475500Y-130300000D03*
D18*
G36*
X138592691Y-127975176D02*
G01*
X138616401Y-127978693D01*
X138639652Y-127984517D01*
X138662220Y-127992592D01*
X138683889Y-128002841D01*
X138704448Y-128015164D01*
X138723701Y-128029442D01*
X138741461Y-128045539D01*
X138757558Y-128063299D01*
X138771836Y-128082552D01*
X138784159Y-128103111D01*
X138794408Y-128124780D01*
X138802483Y-128147348D01*
X138808307Y-128170599D01*
X138811824Y-128194309D01*
X138813000Y-128218250D01*
X138813000Y-128781750D01*
X138811824Y-128805691D01*
X138808307Y-128829401D01*
X138802483Y-128852652D01*
X138794408Y-128875220D01*
X138784159Y-128896889D01*
X138771836Y-128917448D01*
X138757558Y-128936701D01*
X138741461Y-128954461D01*
X138723701Y-128970558D01*
X138704448Y-128984836D01*
X138683889Y-128997159D01*
X138662220Y-129007408D01*
X138639652Y-129015483D01*
X138616401Y-129021307D01*
X138592691Y-129024824D01*
X138568750Y-129026000D01*
X138080250Y-129026000D01*
X138056309Y-129024824D01*
X138032599Y-129021307D01*
X138009348Y-129015483D01*
X137986780Y-129007408D01*
X137965111Y-128997159D01*
X137944552Y-128984836D01*
X137925299Y-128970558D01*
X137907539Y-128954461D01*
X137891442Y-128936701D01*
X137877164Y-128917448D01*
X137864841Y-128896889D01*
X137854592Y-128875220D01*
X137846517Y-128852652D01*
X137840693Y-128829401D01*
X137837176Y-128805691D01*
X137836000Y-128781750D01*
X137836000Y-128218250D01*
X137837176Y-128194309D01*
X137840693Y-128170599D01*
X137846517Y-128147348D01*
X137854592Y-128124780D01*
X137864841Y-128103111D01*
X137877164Y-128082552D01*
X137891442Y-128063299D01*
X137907539Y-128045539D01*
X137925299Y-128029442D01*
X137944552Y-128015164D01*
X137965111Y-128002841D01*
X137986780Y-127992592D01*
X138009348Y-127984517D01*
X138032599Y-127978693D01*
X138056309Y-127975176D01*
X138080250Y-127974000D01*
X138568750Y-127974000D01*
X138592691Y-127975176D01*
X138592691Y-127975176D01*
G37*
D19*
X138324500Y-128500000D03*
D18*
G36*
X140167691Y-127975176D02*
G01*
X140191401Y-127978693D01*
X140214652Y-127984517D01*
X140237220Y-127992592D01*
X140258889Y-128002841D01*
X140279448Y-128015164D01*
X140298701Y-128029442D01*
X140316461Y-128045539D01*
X140332558Y-128063299D01*
X140346836Y-128082552D01*
X140359159Y-128103111D01*
X140369408Y-128124780D01*
X140377483Y-128147348D01*
X140383307Y-128170599D01*
X140386824Y-128194309D01*
X140388000Y-128218250D01*
X140388000Y-128781750D01*
X140386824Y-128805691D01*
X140383307Y-128829401D01*
X140377483Y-128852652D01*
X140369408Y-128875220D01*
X140359159Y-128896889D01*
X140346836Y-128917448D01*
X140332558Y-128936701D01*
X140316461Y-128954461D01*
X140298701Y-128970558D01*
X140279448Y-128984836D01*
X140258889Y-128997159D01*
X140237220Y-129007408D01*
X140214652Y-129015483D01*
X140191401Y-129021307D01*
X140167691Y-129024824D01*
X140143750Y-129026000D01*
X139655250Y-129026000D01*
X139631309Y-129024824D01*
X139607599Y-129021307D01*
X139584348Y-129015483D01*
X139561780Y-129007408D01*
X139540111Y-128997159D01*
X139519552Y-128984836D01*
X139500299Y-128970558D01*
X139482539Y-128954461D01*
X139466442Y-128936701D01*
X139452164Y-128917448D01*
X139439841Y-128896889D01*
X139429592Y-128875220D01*
X139421517Y-128852652D01*
X139415693Y-128829401D01*
X139412176Y-128805691D01*
X139411000Y-128781750D01*
X139411000Y-128218250D01*
X139412176Y-128194309D01*
X139415693Y-128170599D01*
X139421517Y-128147348D01*
X139429592Y-128124780D01*
X139439841Y-128103111D01*
X139452164Y-128082552D01*
X139466442Y-128063299D01*
X139482539Y-128045539D01*
X139500299Y-128029442D01*
X139519552Y-128015164D01*
X139540111Y-128002841D01*
X139561780Y-127992592D01*
X139584348Y-127984517D01*
X139607599Y-127978693D01*
X139631309Y-127975176D01*
X139655250Y-127974000D01*
X140143750Y-127974000D01*
X140167691Y-127975176D01*
X140167691Y-127975176D01*
G37*
D19*
X139899500Y-128500000D03*
D18*
G36*
X140167691Y-126375176D02*
G01*
X140191401Y-126378693D01*
X140214652Y-126384517D01*
X140237220Y-126392592D01*
X140258889Y-126402841D01*
X140279448Y-126415164D01*
X140298701Y-126429442D01*
X140316461Y-126445539D01*
X140332558Y-126463299D01*
X140346836Y-126482552D01*
X140359159Y-126503111D01*
X140369408Y-126524780D01*
X140377483Y-126547348D01*
X140383307Y-126570599D01*
X140386824Y-126594309D01*
X140388000Y-126618250D01*
X140388000Y-127181750D01*
X140386824Y-127205691D01*
X140383307Y-127229401D01*
X140377483Y-127252652D01*
X140369408Y-127275220D01*
X140359159Y-127296889D01*
X140346836Y-127317448D01*
X140332558Y-127336701D01*
X140316461Y-127354461D01*
X140298701Y-127370558D01*
X140279448Y-127384836D01*
X140258889Y-127397159D01*
X140237220Y-127407408D01*
X140214652Y-127415483D01*
X140191401Y-127421307D01*
X140167691Y-127424824D01*
X140143750Y-127426000D01*
X139655250Y-127426000D01*
X139631309Y-127424824D01*
X139607599Y-127421307D01*
X139584348Y-127415483D01*
X139561780Y-127407408D01*
X139540111Y-127397159D01*
X139519552Y-127384836D01*
X139500299Y-127370558D01*
X139482539Y-127354461D01*
X139466442Y-127336701D01*
X139452164Y-127317448D01*
X139439841Y-127296889D01*
X139429592Y-127275220D01*
X139421517Y-127252652D01*
X139415693Y-127229401D01*
X139412176Y-127205691D01*
X139411000Y-127181750D01*
X139411000Y-126618250D01*
X139412176Y-126594309D01*
X139415693Y-126570599D01*
X139421517Y-126547348D01*
X139429592Y-126524780D01*
X139439841Y-126503111D01*
X139452164Y-126482552D01*
X139466442Y-126463299D01*
X139482539Y-126445539D01*
X139500299Y-126429442D01*
X139519552Y-126415164D01*
X139540111Y-126402841D01*
X139561780Y-126392592D01*
X139584348Y-126384517D01*
X139607599Y-126378693D01*
X139631309Y-126375176D01*
X139655250Y-126374000D01*
X140143750Y-126374000D01*
X140167691Y-126375176D01*
X140167691Y-126375176D01*
G37*
D19*
X139899500Y-126900000D03*
D18*
G36*
X138592691Y-126375176D02*
G01*
X138616401Y-126378693D01*
X138639652Y-126384517D01*
X138662220Y-126392592D01*
X138683889Y-126402841D01*
X138704448Y-126415164D01*
X138723701Y-126429442D01*
X138741461Y-126445539D01*
X138757558Y-126463299D01*
X138771836Y-126482552D01*
X138784159Y-126503111D01*
X138794408Y-126524780D01*
X138802483Y-126547348D01*
X138808307Y-126570599D01*
X138811824Y-126594309D01*
X138813000Y-126618250D01*
X138813000Y-127181750D01*
X138811824Y-127205691D01*
X138808307Y-127229401D01*
X138802483Y-127252652D01*
X138794408Y-127275220D01*
X138784159Y-127296889D01*
X138771836Y-127317448D01*
X138757558Y-127336701D01*
X138741461Y-127354461D01*
X138723701Y-127370558D01*
X138704448Y-127384836D01*
X138683889Y-127397159D01*
X138662220Y-127407408D01*
X138639652Y-127415483D01*
X138616401Y-127421307D01*
X138592691Y-127424824D01*
X138568750Y-127426000D01*
X138080250Y-127426000D01*
X138056309Y-127424824D01*
X138032599Y-127421307D01*
X138009348Y-127415483D01*
X137986780Y-127407408D01*
X137965111Y-127397159D01*
X137944552Y-127384836D01*
X137925299Y-127370558D01*
X137907539Y-127354461D01*
X137891442Y-127336701D01*
X137877164Y-127317448D01*
X137864841Y-127296889D01*
X137854592Y-127275220D01*
X137846517Y-127252652D01*
X137840693Y-127229401D01*
X137837176Y-127205691D01*
X137836000Y-127181750D01*
X137836000Y-126618250D01*
X137837176Y-126594309D01*
X137840693Y-126570599D01*
X137846517Y-126547348D01*
X137854592Y-126524780D01*
X137864841Y-126503111D01*
X137877164Y-126482552D01*
X137891442Y-126463299D01*
X137907539Y-126445539D01*
X137925299Y-126429442D01*
X137944552Y-126415164D01*
X137965111Y-126402841D01*
X137986780Y-126392592D01*
X138009348Y-126384517D01*
X138032599Y-126378693D01*
X138056309Y-126375176D01*
X138080250Y-126374000D01*
X138568750Y-126374000D01*
X138592691Y-126375176D01*
X138592691Y-126375176D01*
G37*
D19*
X138324500Y-126900000D03*
D18*
G36*
X144405691Y-116988176D02*
G01*
X144429401Y-116991693D01*
X144452652Y-116997517D01*
X144475220Y-117005592D01*
X144496889Y-117015841D01*
X144517448Y-117028164D01*
X144536701Y-117042442D01*
X144554461Y-117058539D01*
X144570558Y-117076299D01*
X144584836Y-117095552D01*
X144597159Y-117116111D01*
X144607408Y-117137780D01*
X144615483Y-117160348D01*
X144621307Y-117183599D01*
X144624824Y-117207309D01*
X144626000Y-117231250D01*
X144626000Y-117719750D01*
X144624824Y-117743691D01*
X144621307Y-117767401D01*
X144615483Y-117790652D01*
X144607408Y-117813220D01*
X144597159Y-117834889D01*
X144584836Y-117855448D01*
X144570558Y-117874701D01*
X144554461Y-117892461D01*
X144536701Y-117908558D01*
X144517448Y-117922836D01*
X144496889Y-117935159D01*
X144475220Y-117945408D01*
X144452652Y-117953483D01*
X144429401Y-117959307D01*
X144405691Y-117962824D01*
X144381750Y-117964000D01*
X143818250Y-117964000D01*
X143794309Y-117962824D01*
X143770599Y-117959307D01*
X143747348Y-117953483D01*
X143724780Y-117945408D01*
X143703111Y-117935159D01*
X143682552Y-117922836D01*
X143663299Y-117908558D01*
X143645539Y-117892461D01*
X143629442Y-117874701D01*
X143615164Y-117855448D01*
X143602841Y-117834889D01*
X143592592Y-117813220D01*
X143584517Y-117790652D01*
X143578693Y-117767401D01*
X143575176Y-117743691D01*
X143574000Y-117719750D01*
X143574000Y-117231250D01*
X143575176Y-117207309D01*
X143578693Y-117183599D01*
X143584517Y-117160348D01*
X143592592Y-117137780D01*
X143602841Y-117116111D01*
X143615164Y-117095552D01*
X143629442Y-117076299D01*
X143645539Y-117058539D01*
X143663299Y-117042442D01*
X143682552Y-117028164D01*
X143703111Y-117015841D01*
X143724780Y-117005592D01*
X143747348Y-116997517D01*
X143770599Y-116991693D01*
X143794309Y-116988176D01*
X143818250Y-116987000D01*
X144381750Y-116987000D01*
X144405691Y-116988176D01*
X144405691Y-116988176D01*
G37*
D19*
X144100000Y-117475500D03*
D18*
G36*
X144405691Y-115413176D02*
G01*
X144429401Y-115416693D01*
X144452652Y-115422517D01*
X144475220Y-115430592D01*
X144496889Y-115440841D01*
X144517448Y-115453164D01*
X144536701Y-115467442D01*
X144554461Y-115483539D01*
X144570558Y-115501299D01*
X144584836Y-115520552D01*
X144597159Y-115541111D01*
X144607408Y-115562780D01*
X144615483Y-115585348D01*
X144621307Y-115608599D01*
X144624824Y-115632309D01*
X144626000Y-115656250D01*
X144626000Y-116144750D01*
X144624824Y-116168691D01*
X144621307Y-116192401D01*
X144615483Y-116215652D01*
X144607408Y-116238220D01*
X144597159Y-116259889D01*
X144584836Y-116280448D01*
X144570558Y-116299701D01*
X144554461Y-116317461D01*
X144536701Y-116333558D01*
X144517448Y-116347836D01*
X144496889Y-116360159D01*
X144475220Y-116370408D01*
X144452652Y-116378483D01*
X144429401Y-116384307D01*
X144405691Y-116387824D01*
X144381750Y-116389000D01*
X143818250Y-116389000D01*
X143794309Y-116387824D01*
X143770599Y-116384307D01*
X143747348Y-116378483D01*
X143724780Y-116370408D01*
X143703111Y-116360159D01*
X143682552Y-116347836D01*
X143663299Y-116333558D01*
X143645539Y-116317461D01*
X143629442Y-116299701D01*
X143615164Y-116280448D01*
X143602841Y-116259889D01*
X143592592Y-116238220D01*
X143584517Y-116215652D01*
X143578693Y-116192401D01*
X143575176Y-116168691D01*
X143574000Y-116144750D01*
X143574000Y-115656250D01*
X143575176Y-115632309D01*
X143578693Y-115608599D01*
X143584517Y-115585348D01*
X143592592Y-115562780D01*
X143602841Y-115541111D01*
X143615164Y-115520552D01*
X143629442Y-115501299D01*
X143645539Y-115483539D01*
X143663299Y-115467442D01*
X143682552Y-115453164D01*
X143703111Y-115440841D01*
X143724780Y-115430592D01*
X143747348Y-115422517D01*
X143770599Y-115416693D01*
X143794309Y-115413176D01*
X143818250Y-115412000D01*
X144381750Y-115412000D01*
X144405691Y-115413176D01*
X144405691Y-115413176D01*
G37*
D19*
X144100000Y-115900500D03*
D18*
G36*
X140205691Y-130125176D02*
G01*
X140229401Y-130128693D01*
X140252652Y-130134517D01*
X140275220Y-130142592D01*
X140296889Y-130152841D01*
X140317448Y-130165164D01*
X140336701Y-130179442D01*
X140354461Y-130195539D01*
X140370558Y-130213299D01*
X140384836Y-130232552D01*
X140397159Y-130253111D01*
X140407408Y-130274780D01*
X140415483Y-130297348D01*
X140421307Y-130320599D01*
X140424824Y-130344309D01*
X140426000Y-130368250D01*
X140426000Y-130856750D01*
X140424824Y-130880691D01*
X140421307Y-130904401D01*
X140415483Y-130927652D01*
X140407408Y-130950220D01*
X140397159Y-130971889D01*
X140384836Y-130992448D01*
X140370558Y-131011701D01*
X140354461Y-131029461D01*
X140336701Y-131045558D01*
X140317448Y-131059836D01*
X140296889Y-131072159D01*
X140275220Y-131082408D01*
X140252652Y-131090483D01*
X140229401Y-131096307D01*
X140205691Y-131099824D01*
X140181750Y-131101000D01*
X139618250Y-131101000D01*
X139594309Y-131099824D01*
X139570599Y-131096307D01*
X139547348Y-131090483D01*
X139524780Y-131082408D01*
X139503111Y-131072159D01*
X139482552Y-131059836D01*
X139463299Y-131045558D01*
X139445539Y-131029461D01*
X139429442Y-131011701D01*
X139415164Y-130992448D01*
X139402841Y-130971889D01*
X139392592Y-130950220D01*
X139384517Y-130927652D01*
X139378693Y-130904401D01*
X139375176Y-130880691D01*
X139374000Y-130856750D01*
X139374000Y-130368250D01*
X139375176Y-130344309D01*
X139378693Y-130320599D01*
X139384517Y-130297348D01*
X139392592Y-130274780D01*
X139402841Y-130253111D01*
X139415164Y-130232552D01*
X139429442Y-130213299D01*
X139445539Y-130195539D01*
X139463299Y-130179442D01*
X139482552Y-130165164D01*
X139503111Y-130152841D01*
X139524780Y-130142592D01*
X139547348Y-130134517D01*
X139570599Y-130128693D01*
X139594309Y-130125176D01*
X139618250Y-130124000D01*
X140181750Y-130124000D01*
X140205691Y-130125176D01*
X140205691Y-130125176D01*
G37*
D19*
X139900000Y-130612500D03*
D18*
G36*
X140205691Y-131700176D02*
G01*
X140229401Y-131703693D01*
X140252652Y-131709517D01*
X140275220Y-131717592D01*
X140296889Y-131727841D01*
X140317448Y-131740164D01*
X140336701Y-131754442D01*
X140354461Y-131770539D01*
X140370558Y-131788299D01*
X140384836Y-131807552D01*
X140397159Y-131828111D01*
X140407408Y-131849780D01*
X140415483Y-131872348D01*
X140421307Y-131895599D01*
X140424824Y-131919309D01*
X140426000Y-131943250D01*
X140426000Y-132431750D01*
X140424824Y-132455691D01*
X140421307Y-132479401D01*
X140415483Y-132502652D01*
X140407408Y-132525220D01*
X140397159Y-132546889D01*
X140384836Y-132567448D01*
X140370558Y-132586701D01*
X140354461Y-132604461D01*
X140336701Y-132620558D01*
X140317448Y-132634836D01*
X140296889Y-132647159D01*
X140275220Y-132657408D01*
X140252652Y-132665483D01*
X140229401Y-132671307D01*
X140205691Y-132674824D01*
X140181750Y-132676000D01*
X139618250Y-132676000D01*
X139594309Y-132674824D01*
X139570599Y-132671307D01*
X139547348Y-132665483D01*
X139524780Y-132657408D01*
X139503111Y-132647159D01*
X139482552Y-132634836D01*
X139463299Y-132620558D01*
X139445539Y-132604461D01*
X139429442Y-132586701D01*
X139415164Y-132567448D01*
X139402841Y-132546889D01*
X139392592Y-132525220D01*
X139384517Y-132502652D01*
X139378693Y-132479401D01*
X139375176Y-132455691D01*
X139374000Y-132431750D01*
X139374000Y-131943250D01*
X139375176Y-131919309D01*
X139378693Y-131895599D01*
X139384517Y-131872348D01*
X139392592Y-131849780D01*
X139402841Y-131828111D01*
X139415164Y-131807552D01*
X139429442Y-131788299D01*
X139445539Y-131770539D01*
X139463299Y-131754442D01*
X139482552Y-131740164D01*
X139503111Y-131727841D01*
X139524780Y-131717592D01*
X139547348Y-131709517D01*
X139570599Y-131703693D01*
X139594309Y-131700176D01*
X139618250Y-131699000D01*
X140181750Y-131699000D01*
X140205691Y-131700176D01*
X140205691Y-131700176D01*
G37*
D19*
X139900000Y-132187500D03*
D18*
G36*
X140205691Y-133125176D02*
G01*
X140229401Y-133128693D01*
X140252652Y-133134517D01*
X140275220Y-133142592D01*
X140296889Y-133152841D01*
X140317448Y-133165164D01*
X140336701Y-133179442D01*
X140354461Y-133195539D01*
X140370558Y-133213299D01*
X140384836Y-133232552D01*
X140397159Y-133253111D01*
X140407408Y-133274780D01*
X140415483Y-133297348D01*
X140421307Y-133320599D01*
X140424824Y-133344309D01*
X140426000Y-133368250D01*
X140426000Y-133856750D01*
X140424824Y-133880691D01*
X140421307Y-133904401D01*
X140415483Y-133927652D01*
X140407408Y-133950220D01*
X140397159Y-133971889D01*
X140384836Y-133992448D01*
X140370558Y-134011701D01*
X140354461Y-134029461D01*
X140336701Y-134045558D01*
X140317448Y-134059836D01*
X140296889Y-134072159D01*
X140275220Y-134082408D01*
X140252652Y-134090483D01*
X140229401Y-134096307D01*
X140205691Y-134099824D01*
X140181750Y-134101000D01*
X139618250Y-134101000D01*
X139594309Y-134099824D01*
X139570599Y-134096307D01*
X139547348Y-134090483D01*
X139524780Y-134082408D01*
X139503111Y-134072159D01*
X139482552Y-134059836D01*
X139463299Y-134045558D01*
X139445539Y-134029461D01*
X139429442Y-134011701D01*
X139415164Y-133992448D01*
X139402841Y-133971889D01*
X139392592Y-133950220D01*
X139384517Y-133927652D01*
X139378693Y-133904401D01*
X139375176Y-133880691D01*
X139374000Y-133856750D01*
X139374000Y-133368250D01*
X139375176Y-133344309D01*
X139378693Y-133320599D01*
X139384517Y-133297348D01*
X139392592Y-133274780D01*
X139402841Y-133253111D01*
X139415164Y-133232552D01*
X139429442Y-133213299D01*
X139445539Y-133195539D01*
X139463299Y-133179442D01*
X139482552Y-133165164D01*
X139503111Y-133152841D01*
X139524780Y-133142592D01*
X139547348Y-133134517D01*
X139570599Y-133128693D01*
X139594309Y-133125176D01*
X139618250Y-133124000D01*
X140181750Y-133124000D01*
X140205691Y-133125176D01*
X140205691Y-133125176D01*
G37*
D19*
X139900000Y-133612500D03*
D18*
G36*
X140205691Y-134700176D02*
G01*
X140229401Y-134703693D01*
X140252652Y-134709517D01*
X140275220Y-134717592D01*
X140296889Y-134727841D01*
X140317448Y-134740164D01*
X140336701Y-134754442D01*
X140354461Y-134770539D01*
X140370558Y-134788299D01*
X140384836Y-134807552D01*
X140397159Y-134828111D01*
X140407408Y-134849780D01*
X140415483Y-134872348D01*
X140421307Y-134895599D01*
X140424824Y-134919309D01*
X140426000Y-134943250D01*
X140426000Y-135431750D01*
X140424824Y-135455691D01*
X140421307Y-135479401D01*
X140415483Y-135502652D01*
X140407408Y-135525220D01*
X140397159Y-135546889D01*
X140384836Y-135567448D01*
X140370558Y-135586701D01*
X140354461Y-135604461D01*
X140336701Y-135620558D01*
X140317448Y-135634836D01*
X140296889Y-135647159D01*
X140275220Y-135657408D01*
X140252652Y-135665483D01*
X140229401Y-135671307D01*
X140205691Y-135674824D01*
X140181750Y-135676000D01*
X139618250Y-135676000D01*
X139594309Y-135674824D01*
X139570599Y-135671307D01*
X139547348Y-135665483D01*
X139524780Y-135657408D01*
X139503111Y-135647159D01*
X139482552Y-135634836D01*
X139463299Y-135620558D01*
X139445539Y-135604461D01*
X139429442Y-135586701D01*
X139415164Y-135567448D01*
X139402841Y-135546889D01*
X139392592Y-135525220D01*
X139384517Y-135502652D01*
X139378693Y-135479401D01*
X139375176Y-135455691D01*
X139374000Y-135431750D01*
X139374000Y-134943250D01*
X139375176Y-134919309D01*
X139378693Y-134895599D01*
X139384517Y-134872348D01*
X139392592Y-134849780D01*
X139402841Y-134828111D01*
X139415164Y-134807552D01*
X139429442Y-134788299D01*
X139445539Y-134770539D01*
X139463299Y-134754442D01*
X139482552Y-134740164D01*
X139503111Y-134727841D01*
X139524780Y-134717592D01*
X139547348Y-134709517D01*
X139570599Y-134703693D01*
X139594309Y-134700176D01*
X139618250Y-134699000D01*
X140181750Y-134699000D01*
X140205691Y-134700176D01*
X140205691Y-134700176D01*
G37*
D19*
X139900000Y-135187500D03*
D22*
X141920000Y-138400000D03*
X144460000Y-138400000D03*
D23*
X147000000Y-138400000D03*
D18*
G36*
X145943691Y-121575176D02*
G01*
X145967401Y-121578693D01*
X145990652Y-121584517D01*
X146013220Y-121592592D01*
X146034889Y-121602841D01*
X146055448Y-121615164D01*
X146074701Y-121629442D01*
X146092461Y-121645539D01*
X146108558Y-121663299D01*
X146122836Y-121682552D01*
X146135159Y-121703111D01*
X146145408Y-121724780D01*
X146153483Y-121747348D01*
X146159307Y-121770599D01*
X146162824Y-121794309D01*
X146164000Y-121818250D01*
X146164000Y-122381750D01*
X146162824Y-122405691D01*
X146159307Y-122429401D01*
X146153483Y-122452652D01*
X146145408Y-122475220D01*
X146135159Y-122496889D01*
X146122836Y-122517448D01*
X146108558Y-122536701D01*
X146092461Y-122554461D01*
X146074701Y-122570558D01*
X146055448Y-122584836D01*
X146034889Y-122597159D01*
X146013220Y-122607408D01*
X145990652Y-122615483D01*
X145967401Y-122621307D01*
X145943691Y-122624824D01*
X145919750Y-122626000D01*
X145431250Y-122626000D01*
X145407309Y-122624824D01*
X145383599Y-122621307D01*
X145360348Y-122615483D01*
X145337780Y-122607408D01*
X145316111Y-122597159D01*
X145295552Y-122584836D01*
X145276299Y-122570558D01*
X145258539Y-122554461D01*
X145242442Y-122536701D01*
X145228164Y-122517448D01*
X145215841Y-122496889D01*
X145205592Y-122475220D01*
X145197517Y-122452652D01*
X145191693Y-122429401D01*
X145188176Y-122405691D01*
X145187000Y-122381750D01*
X145187000Y-121818250D01*
X145188176Y-121794309D01*
X145191693Y-121770599D01*
X145197517Y-121747348D01*
X145205592Y-121724780D01*
X145215841Y-121703111D01*
X145228164Y-121682552D01*
X145242442Y-121663299D01*
X145258539Y-121645539D01*
X145276299Y-121629442D01*
X145295552Y-121615164D01*
X145316111Y-121602841D01*
X145337780Y-121592592D01*
X145360348Y-121584517D01*
X145383599Y-121578693D01*
X145407309Y-121575176D01*
X145431250Y-121574000D01*
X145919750Y-121574000D01*
X145943691Y-121575176D01*
X145943691Y-121575176D01*
G37*
D19*
X145675500Y-122100000D03*
D18*
G36*
X144368691Y-121575176D02*
G01*
X144392401Y-121578693D01*
X144415652Y-121584517D01*
X144438220Y-121592592D01*
X144459889Y-121602841D01*
X144480448Y-121615164D01*
X144499701Y-121629442D01*
X144517461Y-121645539D01*
X144533558Y-121663299D01*
X144547836Y-121682552D01*
X144560159Y-121703111D01*
X144570408Y-121724780D01*
X144578483Y-121747348D01*
X144584307Y-121770599D01*
X144587824Y-121794309D01*
X144589000Y-121818250D01*
X144589000Y-122381750D01*
X144587824Y-122405691D01*
X144584307Y-122429401D01*
X144578483Y-122452652D01*
X144570408Y-122475220D01*
X144560159Y-122496889D01*
X144547836Y-122517448D01*
X144533558Y-122536701D01*
X144517461Y-122554461D01*
X144499701Y-122570558D01*
X144480448Y-122584836D01*
X144459889Y-122597159D01*
X144438220Y-122607408D01*
X144415652Y-122615483D01*
X144392401Y-122621307D01*
X144368691Y-122624824D01*
X144344750Y-122626000D01*
X143856250Y-122626000D01*
X143832309Y-122624824D01*
X143808599Y-122621307D01*
X143785348Y-122615483D01*
X143762780Y-122607408D01*
X143741111Y-122597159D01*
X143720552Y-122584836D01*
X143701299Y-122570558D01*
X143683539Y-122554461D01*
X143667442Y-122536701D01*
X143653164Y-122517448D01*
X143640841Y-122496889D01*
X143630592Y-122475220D01*
X143622517Y-122452652D01*
X143616693Y-122429401D01*
X143613176Y-122405691D01*
X143612000Y-122381750D01*
X143612000Y-121818250D01*
X143613176Y-121794309D01*
X143616693Y-121770599D01*
X143622517Y-121747348D01*
X143630592Y-121724780D01*
X143640841Y-121703111D01*
X143653164Y-121682552D01*
X143667442Y-121663299D01*
X143683539Y-121645539D01*
X143701299Y-121629442D01*
X143720552Y-121615164D01*
X143741111Y-121602841D01*
X143762780Y-121592592D01*
X143785348Y-121584517D01*
X143808599Y-121578693D01*
X143832309Y-121575176D01*
X143856250Y-121574000D01*
X144344750Y-121574000D01*
X144368691Y-121575176D01*
X144368691Y-121575176D01*
G37*
D19*
X144100500Y-122100000D03*
D18*
G36*
X151783691Y-123375176D02*
G01*
X151807401Y-123378693D01*
X151830652Y-123384517D01*
X151853220Y-123392592D01*
X151874889Y-123402841D01*
X151895448Y-123415164D01*
X151914701Y-123429442D01*
X151932461Y-123445539D01*
X151948558Y-123463299D01*
X151962836Y-123482552D01*
X151975159Y-123503111D01*
X151985408Y-123524780D01*
X151993483Y-123547348D01*
X151999307Y-123570599D01*
X152002824Y-123594309D01*
X152004000Y-123618250D01*
X152004000Y-124181750D01*
X152002824Y-124205691D01*
X151999307Y-124229401D01*
X151993483Y-124252652D01*
X151985408Y-124275220D01*
X151975159Y-124296889D01*
X151962836Y-124317448D01*
X151948558Y-124336701D01*
X151932461Y-124354461D01*
X151914701Y-124370558D01*
X151895448Y-124384836D01*
X151874889Y-124397159D01*
X151853220Y-124407408D01*
X151830652Y-124415483D01*
X151807401Y-124421307D01*
X151783691Y-124424824D01*
X151759750Y-124426000D01*
X151271250Y-124426000D01*
X151247309Y-124424824D01*
X151223599Y-124421307D01*
X151200348Y-124415483D01*
X151177780Y-124407408D01*
X151156111Y-124397159D01*
X151135552Y-124384836D01*
X151116299Y-124370558D01*
X151098539Y-124354461D01*
X151082442Y-124336701D01*
X151068164Y-124317448D01*
X151055841Y-124296889D01*
X151045592Y-124275220D01*
X151037517Y-124252652D01*
X151031693Y-124229401D01*
X151028176Y-124205691D01*
X151027000Y-124181750D01*
X151027000Y-123618250D01*
X151028176Y-123594309D01*
X151031693Y-123570599D01*
X151037517Y-123547348D01*
X151045592Y-123524780D01*
X151055841Y-123503111D01*
X151068164Y-123482552D01*
X151082442Y-123463299D01*
X151098539Y-123445539D01*
X151116299Y-123429442D01*
X151135552Y-123415164D01*
X151156111Y-123402841D01*
X151177780Y-123392592D01*
X151200348Y-123384517D01*
X151223599Y-123378693D01*
X151247309Y-123375176D01*
X151271250Y-123374000D01*
X151759750Y-123374000D01*
X151783691Y-123375176D01*
X151783691Y-123375176D01*
G37*
D19*
X151515500Y-123900000D03*
D18*
G36*
X150208691Y-123375176D02*
G01*
X150232401Y-123378693D01*
X150255652Y-123384517D01*
X150278220Y-123392592D01*
X150299889Y-123402841D01*
X150320448Y-123415164D01*
X150339701Y-123429442D01*
X150357461Y-123445539D01*
X150373558Y-123463299D01*
X150387836Y-123482552D01*
X150400159Y-123503111D01*
X150410408Y-123524780D01*
X150418483Y-123547348D01*
X150424307Y-123570599D01*
X150427824Y-123594309D01*
X150429000Y-123618250D01*
X150429000Y-124181750D01*
X150427824Y-124205691D01*
X150424307Y-124229401D01*
X150418483Y-124252652D01*
X150410408Y-124275220D01*
X150400159Y-124296889D01*
X150387836Y-124317448D01*
X150373558Y-124336701D01*
X150357461Y-124354461D01*
X150339701Y-124370558D01*
X150320448Y-124384836D01*
X150299889Y-124397159D01*
X150278220Y-124407408D01*
X150255652Y-124415483D01*
X150232401Y-124421307D01*
X150208691Y-124424824D01*
X150184750Y-124426000D01*
X149696250Y-124426000D01*
X149672309Y-124424824D01*
X149648599Y-124421307D01*
X149625348Y-124415483D01*
X149602780Y-124407408D01*
X149581111Y-124397159D01*
X149560552Y-124384836D01*
X149541299Y-124370558D01*
X149523539Y-124354461D01*
X149507442Y-124336701D01*
X149493164Y-124317448D01*
X149480841Y-124296889D01*
X149470592Y-124275220D01*
X149462517Y-124252652D01*
X149456693Y-124229401D01*
X149453176Y-124205691D01*
X149452000Y-124181750D01*
X149452000Y-123618250D01*
X149453176Y-123594309D01*
X149456693Y-123570599D01*
X149462517Y-123547348D01*
X149470592Y-123524780D01*
X149480841Y-123503111D01*
X149493164Y-123482552D01*
X149507442Y-123463299D01*
X149523539Y-123445539D01*
X149541299Y-123429442D01*
X149560552Y-123415164D01*
X149581111Y-123402841D01*
X149602780Y-123392592D01*
X149625348Y-123384517D01*
X149648599Y-123378693D01*
X149672309Y-123375176D01*
X149696250Y-123374000D01*
X150184750Y-123374000D01*
X150208691Y-123375176D01*
X150208691Y-123375176D01*
G37*
D19*
X149940500Y-123900000D03*
D18*
G36*
X140167691Y-123375176D02*
G01*
X140191401Y-123378693D01*
X140214652Y-123384517D01*
X140237220Y-123392592D01*
X140258889Y-123402841D01*
X140279448Y-123415164D01*
X140298701Y-123429442D01*
X140316461Y-123445539D01*
X140332558Y-123463299D01*
X140346836Y-123482552D01*
X140359159Y-123503111D01*
X140369408Y-123524780D01*
X140377483Y-123547348D01*
X140383307Y-123570599D01*
X140386824Y-123594309D01*
X140388000Y-123618250D01*
X140388000Y-124181750D01*
X140386824Y-124205691D01*
X140383307Y-124229401D01*
X140377483Y-124252652D01*
X140369408Y-124275220D01*
X140359159Y-124296889D01*
X140346836Y-124317448D01*
X140332558Y-124336701D01*
X140316461Y-124354461D01*
X140298701Y-124370558D01*
X140279448Y-124384836D01*
X140258889Y-124397159D01*
X140237220Y-124407408D01*
X140214652Y-124415483D01*
X140191401Y-124421307D01*
X140167691Y-124424824D01*
X140143750Y-124426000D01*
X139655250Y-124426000D01*
X139631309Y-124424824D01*
X139607599Y-124421307D01*
X139584348Y-124415483D01*
X139561780Y-124407408D01*
X139540111Y-124397159D01*
X139519552Y-124384836D01*
X139500299Y-124370558D01*
X139482539Y-124354461D01*
X139466442Y-124336701D01*
X139452164Y-124317448D01*
X139439841Y-124296889D01*
X139429592Y-124275220D01*
X139421517Y-124252652D01*
X139415693Y-124229401D01*
X139412176Y-124205691D01*
X139411000Y-124181750D01*
X139411000Y-123618250D01*
X139412176Y-123594309D01*
X139415693Y-123570599D01*
X139421517Y-123547348D01*
X139429592Y-123524780D01*
X139439841Y-123503111D01*
X139452164Y-123482552D01*
X139466442Y-123463299D01*
X139482539Y-123445539D01*
X139500299Y-123429442D01*
X139519552Y-123415164D01*
X139540111Y-123402841D01*
X139561780Y-123392592D01*
X139584348Y-123384517D01*
X139607599Y-123378693D01*
X139631309Y-123375176D01*
X139655250Y-123374000D01*
X140143750Y-123374000D01*
X140167691Y-123375176D01*
X140167691Y-123375176D01*
G37*
D19*
X139899500Y-123900000D03*
D18*
G36*
X138592691Y-123375176D02*
G01*
X138616401Y-123378693D01*
X138639652Y-123384517D01*
X138662220Y-123392592D01*
X138683889Y-123402841D01*
X138704448Y-123415164D01*
X138723701Y-123429442D01*
X138741461Y-123445539D01*
X138757558Y-123463299D01*
X138771836Y-123482552D01*
X138784159Y-123503111D01*
X138794408Y-123524780D01*
X138802483Y-123547348D01*
X138808307Y-123570599D01*
X138811824Y-123594309D01*
X138813000Y-123618250D01*
X138813000Y-124181750D01*
X138811824Y-124205691D01*
X138808307Y-124229401D01*
X138802483Y-124252652D01*
X138794408Y-124275220D01*
X138784159Y-124296889D01*
X138771836Y-124317448D01*
X138757558Y-124336701D01*
X138741461Y-124354461D01*
X138723701Y-124370558D01*
X138704448Y-124384836D01*
X138683889Y-124397159D01*
X138662220Y-124407408D01*
X138639652Y-124415483D01*
X138616401Y-124421307D01*
X138592691Y-124424824D01*
X138568750Y-124426000D01*
X138080250Y-124426000D01*
X138056309Y-124424824D01*
X138032599Y-124421307D01*
X138009348Y-124415483D01*
X137986780Y-124407408D01*
X137965111Y-124397159D01*
X137944552Y-124384836D01*
X137925299Y-124370558D01*
X137907539Y-124354461D01*
X137891442Y-124336701D01*
X137877164Y-124317448D01*
X137864841Y-124296889D01*
X137854592Y-124275220D01*
X137846517Y-124252652D01*
X137840693Y-124229401D01*
X137837176Y-124205691D01*
X137836000Y-124181750D01*
X137836000Y-123618250D01*
X137837176Y-123594309D01*
X137840693Y-123570599D01*
X137846517Y-123547348D01*
X137854592Y-123524780D01*
X137864841Y-123503111D01*
X137877164Y-123482552D01*
X137891442Y-123463299D01*
X137907539Y-123445539D01*
X137925299Y-123429442D01*
X137944552Y-123415164D01*
X137965111Y-123402841D01*
X137986780Y-123392592D01*
X138009348Y-123384517D01*
X138032599Y-123378693D01*
X138056309Y-123375176D01*
X138080250Y-123374000D01*
X138568750Y-123374000D01*
X138592691Y-123375176D01*
X138592691Y-123375176D01*
G37*
D19*
X138324500Y-123900000D03*
D18*
G36*
X151743691Y-126675176D02*
G01*
X151767401Y-126678693D01*
X151790652Y-126684517D01*
X151813220Y-126692592D01*
X151834889Y-126702841D01*
X151855448Y-126715164D01*
X151874701Y-126729442D01*
X151892461Y-126745539D01*
X151908558Y-126763299D01*
X151922836Y-126782552D01*
X151935159Y-126803111D01*
X151945408Y-126824780D01*
X151953483Y-126847348D01*
X151959307Y-126870599D01*
X151962824Y-126894309D01*
X151964000Y-126918250D01*
X151964000Y-127481750D01*
X151962824Y-127505691D01*
X151959307Y-127529401D01*
X151953483Y-127552652D01*
X151945408Y-127575220D01*
X151935159Y-127596889D01*
X151922836Y-127617448D01*
X151908558Y-127636701D01*
X151892461Y-127654461D01*
X151874701Y-127670558D01*
X151855448Y-127684836D01*
X151834889Y-127697159D01*
X151813220Y-127707408D01*
X151790652Y-127715483D01*
X151767401Y-127721307D01*
X151743691Y-127724824D01*
X151719750Y-127726000D01*
X151231250Y-127726000D01*
X151207309Y-127724824D01*
X151183599Y-127721307D01*
X151160348Y-127715483D01*
X151137780Y-127707408D01*
X151116111Y-127697159D01*
X151095552Y-127684836D01*
X151076299Y-127670558D01*
X151058539Y-127654461D01*
X151042442Y-127636701D01*
X151028164Y-127617448D01*
X151015841Y-127596889D01*
X151005592Y-127575220D01*
X150997517Y-127552652D01*
X150991693Y-127529401D01*
X150988176Y-127505691D01*
X150987000Y-127481750D01*
X150987000Y-126918250D01*
X150988176Y-126894309D01*
X150991693Y-126870599D01*
X150997517Y-126847348D01*
X151005592Y-126824780D01*
X151015841Y-126803111D01*
X151028164Y-126782552D01*
X151042442Y-126763299D01*
X151058539Y-126745539D01*
X151076299Y-126729442D01*
X151095552Y-126715164D01*
X151116111Y-126702841D01*
X151137780Y-126692592D01*
X151160348Y-126684517D01*
X151183599Y-126678693D01*
X151207309Y-126675176D01*
X151231250Y-126674000D01*
X151719750Y-126674000D01*
X151743691Y-126675176D01*
X151743691Y-126675176D01*
G37*
D19*
X151475500Y-127200000D03*
D18*
G36*
X150168691Y-126675176D02*
G01*
X150192401Y-126678693D01*
X150215652Y-126684517D01*
X150238220Y-126692592D01*
X150259889Y-126702841D01*
X150280448Y-126715164D01*
X150299701Y-126729442D01*
X150317461Y-126745539D01*
X150333558Y-126763299D01*
X150347836Y-126782552D01*
X150360159Y-126803111D01*
X150370408Y-126824780D01*
X150378483Y-126847348D01*
X150384307Y-126870599D01*
X150387824Y-126894309D01*
X150389000Y-126918250D01*
X150389000Y-127481750D01*
X150387824Y-127505691D01*
X150384307Y-127529401D01*
X150378483Y-127552652D01*
X150370408Y-127575220D01*
X150360159Y-127596889D01*
X150347836Y-127617448D01*
X150333558Y-127636701D01*
X150317461Y-127654461D01*
X150299701Y-127670558D01*
X150280448Y-127684836D01*
X150259889Y-127697159D01*
X150238220Y-127707408D01*
X150215652Y-127715483D01*
X150192401Y-127721307D01*
X150168691Y-127724824D01*
X150144750Y-127726000D01*
X149656250Y-127726000D01*
X149632309Y-127724824D01*
X149608599Y-127721307D01*
X149585348Y-127715483D01*
X149562780Y-127707408D01*
X149541111Y-127697159D01*
X149520552Y-127684836D01*
X149501299Y-127670558D01*
X149483539Y-127654461D01*
X149467442Y-127636701D01*
X149453164Y-127617448D01*
X149440841Y-127596889D01*
X149430592Y-127575220D01*
X149422517Y-127552652D01*
X149416693Y-127529401D01*
X149413176Y-127505691D01*
X149412000Y-127481750D01*
X149412000Y-126918250D01*
X149413176Y-126894309D01*
X149416693Y-126870599D01*
X149422517Y-126847348D01*
X149430592Y-126824780D01*
X149440841Y-126803111D01*
X149453164Y-126782552D01*
X149467442Y-126763299D01*
X149483539Y-126745539D01*
X149501299Y-126729442D01*
X149520552Y-126715164D01*
X149541111Y-126702841D01*
X149562780Y-126692592D01*
X149585348Y-126684517D01*
X149608599Y-126678693D01*
X149632309Y-126675176D01*
X149656250Y-126674000D01*
X150144750Y-126674000D01*
X150168691Y-126675176D01*
X150168691Y-126675176D01*
G37*
D19*
X149900500Y-127200000D03*
D18*
G36*
X147405691Y-133013176D02*
G01*
X147429401Y-133016693D01*
X147452652Y-133022517D01*
X147475220Y-133030592D01*
X147496889Y-133040841D01*
X147517448Y-133053164D01*
X147536701Y-133067442D01*
X147554461Y-133083539D01*
X147570558Y-133101299D01*
X147584836Y-133120552D01*
X147597159Y-133141111D01*
X147607408Y-133162780D01*
X147615483Y-133185348D01*
X147621307Y-133208599D01*
X147624824Y-133232309D01*
X147626000Y-133256250D01*
X147626000Y-133744750D01*
X147624824Y-133768691D01*
X147621307Y-133792401D01*
X147615483Y-133815652D01*
X147607408Y-133838220D01*
X147597159Y-133859889D01*
X147584836Y-133880448D01*
X147570558Y-133899701D01*
X147554461Y-133917461D01*
X147536701Y-133933558D01*
X147517448Y-133947836D01*
X147496889Y-133960159D01*
X147475220Y-133970408D01*
X147452652Y-133978483D01*
X147429401Y-133984307D01*
X147405691Y-133987824D01*
X147381750Y-133989000D01*
X146818250Y-133989000D01*
X146794309Y-133987824D01*
X146770599Y-133984307D01*
X146747348Y-133978483D01*
X146724780Y-133970408D01*
X146703111Y-133960159D01*
X146682552Y-133947836D01*
X146663299Y-133933558D01*
X146645539Y-133917461D01*
X146629442Y-133899701D01*
X146615164Y-133880448D01*
X146602841Y-133859889D01*
X146592592Y-133838220D01*
X146584517Y-133815652D01*
X146578693Y-133792401D01*
X146575176Y-133768691D01*
X146574000Y-133744750D01*
X146574000Y-133256250D01*
X146575176Y-133232309D01*
X146578693Y-133208599D01*
X146584517Y-133185348D01*
X146592592Y-133162780D01*
X146602841Y-133141111D01*
X146615164Y-133120552D01*
X146629442Y-133101299D01*
X146645539Y-133083539D01*
X146663299Y-133067442D01*
X146682552Y-133053164D01*
X146703111Y-133040841D01*
X146724780Y-133030592D01*
X146747348Y-133022517D01*
X146770599Y-133016693D01*
X146794309Y-133013176D01*
X146818250Y-133012000D01*
X147381750Y-133012000D01*
X147405691Y-133013176D01*
X147405691Y-133013176D01*
G37*
D19*
X147100000Y-133500500D03*
D18*
G36*
X147405691Y-134588176D02*
G01*
X147429401Y-134591693D01*
X147452652Y-134597517D01*
X147475220Y-134605592D01*
X147496889Y-134615841D01*
X147517448Y-134628164D01*
X147536701Y-134642442D01*
X147554461Y-134658539D01*
X147570558Y-134676299D01*
X147584836Y-134695552D01*
X147597159Y-134716111D01*
X147607408Y-134737780D01*
X147615483Y-134760348D01*
X147621307Y-134783599D01*
X147624824Y-134807309D01*
X147626000Y-134831250D01*
X147626000Y-135319750D01*
X147624824Y-135343691D01*
X147621307Y-135367401D01*
X147615483Y-135390652D01*
X147607408Y-135413220D01*
X147597159Y-135434889D01*
X147584836Y-135455448D01*
X147570558Y-135474701D01*
X147554461Y-135492461D01*
X147536701Y-135508558D01*
X147517448Y-135522836D01*
X147496889Y-135535159D01*
X147475220Y-135545408D01*
X147452652Y-135553483D01*
X147429401Y-135559307D01*
X147405691Y-135562824D01*
X147381750Y-135564000D01*
X146818250Y-135564000D01*
X146794309Y-135562824D01*
X146770599Y-135559307D01*
X146747348Y-135553483D01*
X146724780Y-135545408D01*
X146703111Y-135535159D01*
X146682552Y-135522836D01*
X146663299Y-135508558D01*
X146645539Y-135492461D01*
X146629442Y-135474701D01*
X146615164Y-135455448D01*
X146602841Y-135434889D01*
X146592592Y-135413220D01*
X146584517Y-135390652D01*
X146578693Y-135367401D01*
X146575176Y-135343691D01*
X146574000Y-135319750D01*
X146574000Y-134831250D01*
X146575176Y-134807309D01*
X146578693Y-134783599D01*
X146584517Y-134760348D01*
X146592592Y-134737780D01*
X146602841Y-134716111D01*
X146615164Y-134695552D01*
X146629442Y-134676299D01*
X146645539Y-134658539D01*
X146663299Y-134642442D01*
X146682552Y-134628164D01*
X146703111Y-134615841D01*
X146724780Y-134605592D01*
X146747348Y-134597517D01*
X146770599Y-134591693D01*
X146794309Y-134588176D01*
X146818250Y-134587000D01*
X147381750Y-134587000D01*
X147405691Y-134588176D01*
X147405691Y-134588176D01*
G37*
D19*
X147100000Y-135075500D03*
D18*
G36*
X149143691Y-121575176D02*
G01*
X149167401Y-121578693D01*
X149190652Y-121584517D01*
X149213220Y-121592592D01*
X149234889Y-121602841D01*
X149255448Y-121615164D01*
X149274701Y-121629442D01*
X149292461Y-121645539D01*
X149308558Y-121663299D01*
X149322836Y-121682552D01*
X149335159Y-121703111D01*
X149345408Y-121724780D01*
X149353483Y-121747348D01*
X149359307Y-121770599D01*
X149362824Y-121794309D01*
X149364000Y-121818250D01*
X149364000Y-122381750D01*
X149362824Y-122405691D01*
X149359307Y-122429401D01*
X149353483Y-122452652D01*
X149345408Y-122475220D01*
X149335159Y-122496889D01*
X149322836Y-122517448D01*
X149308558Y-122536701D01*
X149292461Y-122554461D01*
X149274701Y-122570558D01*
X149255448Y-122584836D01*
X149234889Y-122597159D01*
X149213220Y-122607408D01*
X149190652Y-122615483D01*
X149167401Y-122621307D01*
X149143691Y-122624824D01*
X149119750Y-122626000D01*
X148631250Y-122626000D01*
X148607309Y-122624824D01*
X148583599Y-122621307D01*
X148560348Y-122615483D01*
X148537780Y-122607408D01*
X148516111Y-122597159D01*
X148495552Y-122584836D01*
X148476299Y-122570558D01*
X148458539Y-122554461D01*
X148442442Y-122536701D01*
X148428164Y-122517448D01*
X148415841Y-122496889D01*
X148405592Y-122475220D01*
X148397517Y-122452652D01*
X148391693Y-122429401D01*
X148388176Y-122405691D01*
X148387000Y-122381750D01*
X148387000Y-121818250D01*
X148388176Y-121794309D01*
X148391693Y-121770599D01*
X148397517Y-121747348D01*
X148405592Y-121724780D01*
X148415841Y-121703111D01*
X148428164Y-121682552D01*
X148442442Y-121663299D01*
X148458539Y-121645539D01*
X148476299Y-121629442D01*
X148495552Y-121615164D01*
X148516111Y-121602841D01*
X148537780Y-121592592D01*
X148560348Y-121584517D01*
X148583599Y-121578693D01*
X148607309Y-121575176D01*
X148631250Y-121574000D01*
X149119750Y-121574000D01*
X149143691Y-121575176D01*
X149143691Y-121575176D01*
G37*
D19*
X148875500Y-122100000D03*
D18*
G36*
X147568691Y-121575176D02*
G01*
X147592401Y-121578693D01*
X147615652Y-121584517D01*
X147638220Y-121592592D01*
X147659889Y-121602841D01*
X147680448Y-121615164D01*
X147699701Y-121629442D01*
X147717461Y-121645539D01*
X147733558Y-121663299D01*
X147747836Y-121682552D01*
X147760159Y-121703111D01*
X147770408Y-121724780D01*
X147778483Y-121747348D01*
X147784307Y-121770599D01*
X147787824Y-121794309D01*
X147789000Y-121818250D01*
X147789000Y-122381750D01*
X147787824Y-122405691D01*
X147784307Y-122429401D01*
X147778483Y-122452652D01*
X147770408Y-122475220D01*
X147760159Y-122496889D01*
X147747836Y-122517448D01*
X147733558Y-122536701D01*
X147717461Y-122554461D01*
X147699701Y-122570558D01*
X147680448Y-122584836D01*
X147659889Y-122597159D01*
X147638220Y-122607408D01*
X147615652Y-122615483D01*
X147592401Y-122621307D01*
X147568691Y-122624824D01*
X147544750Y-122626000D01*
X147056250Y-122626000D01*
X147032309Y-122624824D01*
X147008599Y-122621307D01*
X146985348Y-122615483D01*
X146962780Y-122607408D01*
X146941111Y-122597159D01*
X146920552Y-122584836D01*
X146901299Y-122570558D01*
X146883539Y-122554461D01*
X146867442Y-122536701D01*
X146853164Y-122517448D01*
X146840841Y-122496889D01*
X146830592Y-122475220D01*
X146822517Y-122452652D01*
X146816693Y-122429401D01*
X146813176Y-122405691D01*
X146812000Y-122381750D01*
X146812000Y-121818250D01*
X146813176Y-121794309D01*
X146816693Y-121770599D01*
X146822517Y-121747348D01*
X146830592Y-121724780D01*
X146840841Y-121703111D01*
X146853164Y-121682552D01*
X146867442Y-121663299D01*
X146883539Y-121645539D01*
X146901299Y-121629442D01*
X146920552Y-121615164D01*
X146941111Y-121602841D01*
X146962780Y-121592592D01*
X146985348Y-121584517D01*
X147008599Y-121578693D01*
X147032309Y-121575176D01*
X147056250Y-121574000D01*
X147544750Y-121574000D01*
X147568691Y-121575176D01*
X147568691Y-121575176D01*
G37*
D19*
X147300500Y-122100000D03*
D18*
G36*
X150168691Y-128175176D02*
G01*
X150192401Y-128178693D01*
X150215652Y-128184517D01*
X150238220Y-128192592D01*
X150259889Y-128202841D01*
X150280448Y-128215164D01*
X150299701Y-128229442D01*
X150317461Y-128245539D01*
X150333558Y-128263299D01*
X150347836Y-128282552D01*
X150360159Y-128303111D01*
X150370408Y-128324780D01*
X150378483Y-128347348D01*
X150384307Y-128370599D01*
X150387824Y-128394309D01*
X150389000Y-128418250D01*
X150389000Y-128981750D01*
X150387824Y-129005691D01*
X150384307Y-129029401D01*
X150378483Y-129052652D01*
X150370408Y-129075220D01*
X150360159Y-129096889D01*
X150347836Y-129117448D01*
X150333558Y-129136701D01*
X150317461Y-129154461D01*
X150299701Y-129170558D01*
X150280448Y-129184836D01*
X150259889Y-129197159D01*
X150238220Y-129207408D01*
X150215652Y-129215483D01*
X150192401Y-129221307D01*
X150168691Y-129224824D01*
X150144750Y-129226000D01*
X149656250Y-129226000D01*
X149632309Y-129224824D01*
X149608599Y-129221307D01*
X149585348Y-129215483D01*
X149562780Y-129207408D01*
X149541111Y-129197159D01*
X149520552Y-129184836D01*
X149501299Y-129170558D01*
X149483539Y-129154461D01*
X149467442Y-129136701D01*
X149453164Y-129117448D01*
X149440841Y-129096889D01*
X149430592Y-129075220D01*
X149422517Y-129052652D01*
X149416693Y-129029401D01*
X149413176Y-129005691D01*
X149412000Y-128981750D01*
X149412000Y-128418250D01*
X149413176Y-128394309D01*
X149416693Y-128370599D01*
X149422517Y-128347348D01*
X149430592Y-128324780D01*
X149440841Y-128303111D01*
X149453164Y-128282552D01*
X149467442Y-128263299D01*
X149483539Y-128245539D01*
X149501299Y-128229442D01*
X149520552Y-128215164D01*
X149541111Y-128202841D01*
X149562780Y-128192592D01*
X149585348Y-128184517D01*
X149608599Y-128178693D01*
X149632309Y-128175176D01*
X149656250Y-128174000D01*
X150144750Y-128174000D01*
X150168691Y-128175176D01*
X150168691Y-128175176D01*
G37*
D19*
X149900500Y-128700000D03*
D18*
G36*
X151743691Y-128175176D02*
G01*
X151767401Y-128178693D01*
X151790652Y-128184517D01*
X151813220Y-128192592D01*
X151834889Y-128202841D01*
X151855448Y-128215164D01*
X151874701Y-128229442D01*
X151892461Y-128245539D01*
X151908558Y-128263299D01*
X151922836Y-128282552D01*
X151935159Y-128303111D01*
X151945408Y-128324780D01*
X151953483Y-128347348D01*
X151959307Y-128370599D01*
X151962824Y-128394309D01*
X151964000Y-128418250D01*
X151964000Y-128981750D01*
X151962824Y-129005691D01*
X151959307Y-129029401D01*
X151953483Y-129052652D01*
X151945408Y-129075220D01*
X151935159Y-129096889D01*
X151922836Y-129117448D01*
X151908558Y-129136701D01*
X151892461Y-129154461D01*
X151874701Y-129170558D01*
X151855448Y-129184836D01*
X151834889Y-129197159D01*
X151813220Y-129207408D01*
X151790652Y-129215483D01*
X151767401Y-129221307D01*
X151743691Y-129224824D01*
X151719750Y-129226000D01*
X151231250Y-129226000D01*
X151207309Y-129224824D01*
X151183599Y-129221307D01*
X151160348Y-129215483D01*
X151137780Y-129207408D01*
X151116111Y-129197159D01*
X151095552Y-129184836D01*
X151076299Y-129170558D01*
X151058539Y-129154461D01*
X151042442Y-129136701D01*
X151028164Y-129117448D01*
X151015841Y-129096889D01*
X151005592Y-129075220D01*
X150997517Y-129052652D01*
X150991693Y-129029401D01*
X150988176Y-129005691D01*
X150987000Y-128981750D01*
X150987000Y-128418250D01*
X150988176Y-128394309D01*
X150991693Y-128370599D01*
X150997517Y-128347348D01*
X151005592Y-128324780D01*
X151015841Y-128303111D01*
X151028164Y-128282552D01*
X151042442Y-128263299D01*
X151058539Y-128245539D01*
X151076299Y-128229442D01*
X151095552Y-128215164D01*
X151116111Y-128202841D01*
X151137780Y-128192592D01*
X151160348Y-128184517D01*
X151183599Y-128178693D01*
X151207309Y-128175176D01*
X151231250Y-128174000D01*
X151719750Y-128174000D01*
X151743691Y-128175176D01*
X151743691Y-128175176D01*
G37*
D19*
X151475500Y-128700000D03*
D18*
G36*
X151743691Y-131275176D02*
G01*
X151767401Y-131278693D01*
X151790652Y-131284517D01*
X151813220Y-131292592D01*
X151834889Y-131302841D01*
X151855448Y-131315164D01*
X151874701Y-131329442D01*
X151892461Y-131345539D01*
X151908558Y-131363299D01*
X151922836Y-131382552D01*
X151935159Y-131403111D01*
X151945408Y-131424780D01*
X151953483Y-131447348D01*
X151959307Y-131470599D01*
X151962824Y-131494309D01*
X151964000Y-131518250D01*
X151964000Y-132081750D01*
X151962824Y-132105691D01*
X151959307Y-132129401D01*
X151953483Y-132152652D01*
X151945408Y-132175220D01*
X151935159Y-132196889D01*
X151922836Y-132217448D01*
X151908558Y-132236701D01*
X151892461Y-132254461D01*
X151874701Y-132270558D01*
X151855448Y-132284836D01*
X151834889Y-132297159D01*
X151813220Y-132307408D01*
X151790652Y-132315483D01*
X151767401Y-132321307D01*
X151743691Y-132324824D01*
X151719750Y-132326000D01*
X151231250Y-132326000D01*
X151207309Y-132324824D01*
X151183599Y-132321307D01*
X151160348Y-132315483D01*
X151137780Y-132307408D01*
X151116111Y-132297159D01*
X151095552Y-132284836D01*
X151076299Y-132270558D01*
X151058539Y-132254461D01*
X151042442Y-132236701D01*
X151028164Y-132217448D01*
X151015841Y-132196889D01*
X151005592Y-132175220D01*
X150997517Y-132152652D01*
X150991693Y-132129401D01*
X150988176Y-132105691D01*
X150987000Y-132081750D01*
X150987000Y-131518250D01*
X150988176Y-131494309D01*
X150991693Y-131470599D01*
X150997517Y-131447348D01*
X151005592Y-131424780D01*
X151015841Y-131403111D01*
X151028164Y-131382552D01*
X151042442Y-131363299D01*
X151058539Y-131345539D01*
X151076299Y-131329442D01*
X151095552Y-131315164D01*
X151116111Y-131302841D01*
X151137780Y-131292592D01*
X151160348Y-131284517D01*
X151183599Y-131278693D01*
X151207309Y-131275176D01*
X151231250Y-131274000D01*
X151719750Y-131274000D01*
X151743691Y-131275176D01*
X151743691Y-131275176D01*
G37*
D19*
X151475500Y-131800000D03*
D18*
G36*
X150168691Y-131275176D02*
G01*
X150192401Y-131278693D01*
X150215652Y-131284517D01*
X150238220Y-131292592D01*
X150259889Y-131302841D01*
X150280448Y-131315164D01*
X150299701Y-131329442D01*
X150317461Y-131345539D01*
X150333558Y-131363299D01*
X150347836Y-131382552D01*
X150360159Y-131403111D01*
X150370408Y-131424780D01*
X150378483Y-131447348D01*
X150384307Y-131470599D01*
X150387824Y-131494309D01*
X150389000Y-131518250D01*
X150389000Y-132081750D01*
X150387824Y-132105691D01*
X150384307Y-132129401D01*
X150378483Y-132152652D01*
X150370408Y-132175220D01*
X150360159Y-132196889D01*
X150347836Y-132217448D01*
X150333558Y-132236701D01*
X150317461Y-132254461D01*
X150299701Y-132270558D01*
X150280448Y-132284836D01*
X150259889Y-132297159D01*
X150238220Y-132307408D01*
X150215652Y-132315483D01*
X150192401Y-132321307D01*
X150168691Y-132324824D01*
X150144750Y-132326000D01*
X149656250Y-132326000D01*
X149632309Y-132324824D01*
X149608599Y-132321307D01*
X149585348Y-132315483D01*
X149562780Y-132307408D01*
X149541111Y-132297159D01*
X149520552Y-132284836D01*
X149501299Y-132270558D01*
X149483539Y-132254461D01*
X149467442Y-132236701D01*
X149453164Y-132217448D01*
X149440841Y-132196889D01*
X149430592Y-132175220D01*
X149422517Y-132152652D01*
X149416693Y-132129401D01*
X149413176Y-132105691D01*
X149412000Y-132081750D01*
X149412000Y-131518250D01*
X149413176Y-131494309D01*
X149416693Y-131470599D01*
X149422517Y-131447348D01*
X149430592Y-131424780D01*
X149440841Y-131403111D01*
X149453164Y-131382552D01*
X149467442Y-131363299D01*
X149483539Y-131345539D01*
X149501299Y-131329442D01*
X149520552Y-131315164D01*
X149541111Y-131302841D01*
X149562780Y-131292592D01*
X149585348Y-131284517D01*
X149608599Y-131278693D01*
X149632309Y-131275176D01*
X149656250Y-131274000D01*
X150144750Y-131274000D01*
X150168691Y-131275176D01*
X150168691Y-131275176D01*
G37*
D19*
X149900500Y-131800000D03*
D18*
G36*
X142905691Y-117012176D02*
G01*
X142929401Y-117015693D01*
X142952652Y-117021517D01*
X142975220Y-117029592D01*
X142996889Y-117039841D01*
X143017448Y-117052164D01*
X143036701Y-117066442D01*
X143054461Y-117082539D01*
X143070558Y-117100299D01*
X143084836Y-117119552D01*
X143097159Y-117140111D01*
X143107408Y-117161780D01*
X143115483Y-117184348D01*
X143121307Y-117207599D01*
X143124824Y-117231309D01*
X143126000Y-117255250D01*
X143126000Y-117743750D01*
X143124824Y-117767691D01*
X143121307Y-117791401D01*
X143115483Y-117814652D01*
X143107408Y-117837220D01*
X143097159Y-117858889D01*
X143084836Y-117879448D01*
X143070558Y-117898701D01*
X143054461Y-117916461D01*
X143036701Y-117932558D01*
X143017448Y-117946836D01*
X142996889Y-117959159D01*
X142975220Y-117969408D01*
X142952652Y-117977483D01*
X142929401Y-117983307D01*
X142905691Y-117986824D01*
X142881750Y-117988000D01*
X142318250Y-117988000D01*
X142294309Y-117986824D01*
X142270599Y-117983307D01*
X142247348Y-117977483D01*
X142224780Y-117969408D01*
X142203111Y-117959159D01*
X142182552Y-117946836D01*
X142163299Y-117932558D01*
X142145539Y-117916461D01*
X142129442Y-117898701D01*
X142115164Y-117879448D01*
X142102841Y-117858889D01*
X142092592Y-117837220D01*
X142084517Y-117814652D01*
X142078693Y-117791401D01*
X142075176Y-117767691D01*
X142074000Y-117743750D01*
X142074000Y-117255250D01*
X142075176Y-117231309D01*
X142078693Y-117207599D01*
X142084517Y-117184348D01*
X142092592Y-117161780D01*
X142102841Y-117140111D01*
X142115164Y-117119552D01*
X142129442Y-117100299D01*
X142145539Y-117082539D01*
X142163299Y-117066442D01*
X142182552Y-117052164D01*
X142203111Y-117039841D01*
X142224780Y-117029592D01*
X142247348Y-117021517D01*
X142270599Y-117015693D01*
X142294309Y-117012176D01*
X142318250Y-117011000D01*
X142881750Y-117011000D01*
X142905691Y-117012176D01*
X142905691Y-117012176D01*
G37*
D19*
X142600000Y-117499500D03*
D18*
G36*
X142905691Y-115437176D02*
G01*
X142929401Y-115440693D01*
X142952652Y-115446517D01*
X142975220Y-115454592D01*
X142996889Y-115464841D01*
X143017448Y-115477164D01*
X143036701Y-115491442D01*
X143054461Y-115507539D01*
X143070558Y-115525299D01*
X143084836Y-115544552D01*
X143097159Y-115565111D01*
X143107408Y-115586780D01*
X143115483Y-115609348D01*
X143121307Y-115632599D01*
X143124824Y-115656309D01*
X143126000Y-115680250D01*
X143126000Y-116168750D01*
X143124824Y-116192691D01*
X143121307Y-116216401D01*
X143115483Y-116239652D01*
X143107408Y-116262220D01*
X143097159Y-116283889D01*
X143084836Y-116304448D01*
X143070558Y-116323701D01*
X143054461Y-116341461D01*
X143036701Y-116357558D01*
X143017448Y-116371836D01*
X142996889Y-116384159D01*
X142975220Y-116394408D01*
X142952652Y-116402483D01*
X142929401Y-116408307D01*
X142905691Y-116411824D01*
X142881750Y-116413000D01*
X142318250Y-116413000D01*
X142294309Y-116411824D01*
X142270599Y-116408307D01*
X142247348Y-116402483D01*
X142224780Y-116394408D01*
X142203111Y-116384159D01*
X142182552Y-116371836D01*
X142163299Y-116357558D01*
X142145539Y-116341461D01*
X142129442Y-116323701D01*
X142115164Y-116304448D01*
X142102841Y-116283889D01*
X142092592Y-116262220D01*
X142084517Y-116239652D01*
X142078693Y-116216401D01*
X142075176Y-116192691D01*
X142074000Y-116168750D01*
X142074000Y-115680250D01*
X142075176Y-115656309D01*
X142078693Y-115632599D01*
X142084517Y-115609348D01*
X142092592Y-115586780D01*
X142102841Y-115565111D01*
X142115164Y-115544552D01*
X142129442Y-115525299D01*
X142145539Y-115507539D01*
X142163299Y-115491442D01*
X142182552Y-115477164D01*
X142203111Y-115464841D01*
X142224780Y-115454592D01*
X142247348Y-115446517D01*
X142270599Y-115440693D01*
X142294309Y-115437176D01*
X142318250Y-115436000D01*
X142881750Y-115436000D01*
X142905691Y-115437176D01*
X142905691Y-115437176D01*
G37*
D19*
X142600000Y-115924500D03*
D18*
G36*
X143705691Y-110737176D02*
G01*
X143729401Y-110740693D01*
X143752652Y-110746517D01*
X143775220Y-110754592D01*
X143796889Y-110764841D01*
X143817448Y-110777164D01*
X143836701Y-110791442D01*
X143854461Y-110807539D01*
X143870558Y-110825299D01*
X143884836Y-110844552D01*
X143897159Y-110865111D01*
X143907408Y-110886780D01*
X143915483Y-110909348D01*
X143921307Y-110932599D01*
X143924824Y-110956309D01*
X143926000Y-110980250D01*
X143926000Y-111468750D01*
X143924824Y-111492691D01*
X143921307Y-111516401D01*
X143915483Y-111539652D01*
X143907408Y-111562220D01*
X143897159Y-111583889D01*
X143884836Y-111604448D01*
X143870558Y-111623701D01*
X143854461Y-111641461D01*
X143836701Y-111657558D01*
X143817448Y-111671836D01*
X143796889Y-111684159D01*
X143775220Y-111694408D01*
X143752652Y-111702483D01*
X143729401Y-111708307D01*
X143705691Y-111711824D01*
X143681750Y-111713000D01*
X143118250Y-111713000D01*
X143094309Y-111711824D01*
X143070599Y-111708307D01*
X143047348Y-111702483D01*
X143024780Y-111694408D01*
X143003111Y-111684159D01*
X142982552Y-111671836D01*
X142963299Y-111657558D01*
X142945539Y-111641461D01*
X142929442Y-111623701D01*
X142915164Y-111604448D01*
X142902841Y-111583889D01*
X142892592Y-111562220D01*
X142884517Y-111539652D01*
X142878693Y-111516401D01*
X142875176Y-111492691D01*
X142874000Y-111468750D01*
X142874000Y-110980250D01*
X142875176Y-110956309D01*
X142878693Y-110932599D01*
X142884517Y-110909348D01*
X142892592Y-110886780D01*
X142902841Y-110865111D01*
X142915164Y-110844552D01*
X142929442Y-110825299D01*
X142945539Y-110807539D01*
X142963299Y-110791442D01*
X142982552Y-110777164D01*
X143003111Y-110764841D01*
X143024780Y-110754592D01*
X143047348Y-110746517D01*
X143070599Y-110740693D01*
X143094309Y-110737176D01*
X143118250Y-110736000D01*
X143681750Y-110736000D01*
X143705691Y-110737176D01*
X143705691Y-110737176D01*
G37*
D19*
X143400000Y-111224500D03*
D18*
G36*
X143705691Y-112312176D02*
G01*
X143729401Y-112315693D01*
X143752652Y-112321517D01*
X143775220Y-112329592D01*
X143796889Y-112339841D01*
X143817448Y-112352164D01*
X143836701Y-112366442D01*
X143854461Y-112382539D01*
X143870558Y-112400299D01*
X143884836Y-112419552D01*
X143897159Y-112440111D01*
X143907408Y-112461780D01*
X143915483Y-112484348D01*
X143921307Y-112507599D01*
X143924824Y-112531309D01*
X143926000Y-112555250D01*
X143926000Y-113043750D01*
X143924824Y-113067691D01*
X143921307Y-113091401D01*
X143915483Y-113114652D01*
X143907408Y-113137220D01*
X143897159Y-113158889D01*
X143884836Y-113179448D01*
X143870558Y-113198701D01*
X143854461Y-113216461D01*
X143836701Y-113232558D01*
X143817448Y-113246836D01*
X143796889Y-113259159D01*
X143775220Y-113269408D01*
X143752652Y-113277483D01*
X143729401Y-113283307D01*
X143705691Y-113286824D01*
X143681750Y-113288000D01*
X143118250Y-113288000D01*
X143094309Y-113286824D01*
X143070599Y-113283307D01*
X143047348Y-113277483D01*
X143024780Y-113269408D01*
X143003111Y-113259159D01*
X142982552Y-113246836D01*
X142963299Y-113232558D01*
X142945539Y-113216461D01*
X142929442Y-113198701D01*
X142915164Y-113179448D01*
X142902841Y-113158889D01*
X142892592Y-113137220D01*
X142884517Y-113114652D01*
X142878693Y-113091401D01*
X142875176Y-113067691D01*
X142874000Y-113043750D01*
X142874000Y-112555250D01*
X142875176Y-112531309D01*
X142878693Y-112507599D01*
X142884517Y-112484348D01*
X142892592Y-112461780D01*
X142902841Y-112440111D01*
X142915164Y-112419552D01*
X142929442Y-112400299D01*
X142945539Y-112382539D01*
X142963299Y-112366442D01*
X142982552Y-112352164D01*
X143003111Y-112339841D01*
X143024780Y-112329592D01*
X143047348Y-112321517D01*
X143070599Y-112315693D01*
X143094309Y-112312176D01*
X143118250Y-112311000D01*
X143681750Y-112311000D01*
X143705691Y-112312176D01*
X143705691Y-112312176D01*
G37*
D19*
X143400000Y-112799500D03*
D18*
G36*
X138005691Y-115325176D02*
G01*
X138029401Y-115328693D01*
X138052652Y-115334517D01*
X138075220Y-115342592D01*
X138096889Y-115352841D01*
X138117448Y-115365164D01*
X138136701Y-115379442D01*
X138154461Y-115395539D01*
X138170558Y-115413299D01*
X138184836Y-115432552D01*
X138197159Y-115453111D01*
X138207408Y-115474780D01*
X138215483Y-115497348D01*
X138221307Y-115520599D01*
X138224824Y-115544309D01*
X138226000Y-115568250D01*
X138226000Y-116056750D01*
X138224824Y-116080691D01*
X138221307Y-116104401D01*
X138215483Y-116127652D01*
X138207408Y-116150220D01*
X138197159Y-116171889D01*
X138184836Y-116192448D01*
X138170558Y-116211701D01*
X138154461Y-116229461D01*
X138136701Y-116245558D01*
X138117448Y-116259836D01*
X138096889Y-116272159D01*
X138075220Y-116282408D01*
X138052652Y-116290483D01*
X138029401Y-116296307D01*
X138005691Y-116299824D01*
X137981750Y-116301000D01*
X137418250Y-116301000D01*
X137394309Y-116299824D01*
X137370599Y-116296307D01*
X137347348Y-116290483D01*
X137324780Y-116282408D01*
X137303111Y-116272159D01*
X137282552Y-116259836D01*
X137263299Y-116245558D01*
X137245539Y-116229461D01*
X137229442Y-116211701D01*
X137215164Y-116192448D01*
X137202841Y-116171889D01*
X137192592Y-116150220D01*
X137184517Y-116127652D01*
X137178693Y-116104401D01*
X137175176Y-116080691D01*
X137174000Y-116056750D01*
X137174000Y-115568250D01*
X137175176Y-115544309D01*
X137178693Y-115520599D01*
X137184517Y-115497348D01*
X137192592Y-115474780D01*
X137202841Y-115453111D01*
X137215164Y-115432552D01*
X137229442Y-115413299D01*
X137245539Y-115395539D01*
X137263299Y-115379442D01*
X137282552Y-115365164D01*
X137303111Y-115352841D01*
X137324780Y-115342592D01*
X137347348Y-115334517D01*
X137370599Y-115328693D01*
X137394309Y-115325176D01*
X137418250Y-115324000D01*
X137981750Y-115324000D01*
X138005691Y-115325176D01*
X138005691Y-115325176D01*
G37*
D19*
X137700000Y-115812500D03*
D18*
G36*
X138005691Y-116900176D02*
G01*
X138029401Y-116903693D01*
X138052652Y-116909517D01*
X138075220Y-116917592D01*
X138096889Y-116927841D01*
X138117448Y-116940164D01*
X138136701Y-116954442D01*
X138154461Y-116970539D01*
X138170558Y-116988299D01*
X138184836Y-117007552D01*
X138197159Y-117028111D01*
X138207408Y-117049780D01*
X138215483Y-117072348D01*
X138221307Y-117095599D01*
X138224824Y-117119309D01*
X138226000Y-117143250D01*
X138226000Y-117631750D01*
X138224824Y-117655691D01*
X138221307Y-117679401D01*
X138215483Y-117702652D01*
X138207408Y-117725220D01*
X138197159Y-117746889D01*
X138184836Y-117767448D01*
X138170558Y-117786701D01*
X138154461Y-117804461D01*
X138136701Y-117820558D01*
X138117448Y-117834836D01*
X138096889Y-117847159D01*
X138075220Y-117857408D01*
X138052652Y-117865483D01*
X138029401Y-117871307D01*
X138005691Y-117874824D01*
X137981750Y-117876000D01*
X137418250Y-117876000D01*
X137394309Y-117874824D01*
X137370599Y-117871307D01*
X137347348Y-117865483D01*
X137324780Y-117857408D01*
X137303111Y-117847159D01*
X137282552Y-117834836D01*
X137263299Y-117820558D01*
X137245539Y-117804461D01*
X137229442Y-117786701D01*
X137215164Y-117767448D01*
X137202841Y-117746889D01*
X137192592Y-117725220D01*
X137184517Y-117702652D01*
X137178693Y-117679401D01*
X137175176Y-117655691D01*
X137174000Y-117631750D01*
X137174000Y-117143250D01*
X137175176Y-117119309D01*
X137178693Y-117095599D01*
X137184517Y-117072348D01*
X137192592Y-117049780D01*
X137202841Y-117028111D01*
X137215164Y-117007552D01*
X137229442Y-116988299D01*
X137245539Y-116970539D01*
X137263299Y-116954442D01*
X137282552Y-116940164D01*
X137303111Y-116927841D01*
X137324780Y-116917592D01*
X137347348Y-116909517D01*
X137370599Y-116903693D01*
X137394309Y-116900176D01*
X137418250Y-116899000D01*
X137981750Y-116899000D01*
X138005691Y-116900176D01*
X138005691Y-116900176D01*
G37*
D19*
X137700000Y-117387500D03*
D18*
G36*
X148605691Y-112388176D02*
G01*
X148629401Y-112391693D01*
X148652652Y-112397517D01*
X148675220Y-112405592D01*
X148696889Y-112415841D01*
X148717448Y-112428164D01*
X148736701Y-112442442D01*
X148754461Y-112458539D01*
X148770558Y-112476299D01*
X148784836Y-112495552D01*
X148797159Y-112516111D01*
X148807408Y-112537780D01*
X148815483Y-112560348D01*
X148821307Y-112583599D01*
X148824824Y-112607309D01*
X148826000Y-112631250D01*
X148826000Y-113119750D01*
X148824824Y-113143691D01*
X148821307Y-113167401D01*
X148815483Y-113190652D01*
X148807408Y-113213220D01*
X148797159Y-113234889D01*
X148784836Y-113255448D01*
X148770558Y-113274701D01*
X148754461Y-113292461D01*
X148736701Y-113308558D01*
X148717448Y-113322836D01*
X148696889Y-113335159D01*
X148675220Y-113345408D01*
X148652652Y-113353483D01*
X148629401Y-113359307D01*
X148605691Y-113362824D01*
X148581750Y-113364000D01*
X148018250Y-113364000D01*
X147994309Y-113362824D01*
X147970599Y-113359307D01*
X147947348Y-113353483D01*
X147924780Y-113345408D01*
X147903111Y-113335159D01*
X147882552Y-113322836D01*
X147863299Y-113308558D01*
X147845539Y-113292461D01*
X147829442Y-113274701D01*
X147815164Y-113255448D01*
X147802841Y-113234889D01*
X147792592Y-113213220D01*
X147784517Y-113190652D01*
X147778693Y-113167401D01*
X147775176Y-113143691D01*
X147774000Y-113119750D01*
X147774000Y-112631250D01*
X147775176Y-112607309D01*
X147778693Y-112583599D01*
X147784517Y-112560348D01*
X147792592Y-112537780D01*
X147802841Y-112516111D01*
X147815164Y-112495552D01*
X147829442Y-112476299D01*
X147845539Y-112458539D01*
X147863299Y-112442442D01*
X147882552Y-112428164D01*
X147903111Y-112415841D01*
X147924780Y-112405592D01*
X147947348Y-112397517D01*
X147970599Y-112391693D01*
X147994309Y-112388176D01*
X148018250Y-112387000D01*
X148581750Y-112387000D01*
X148605691Y-112388176D01*
X148605691Y-112388176D01*
G37*
D19*
X148300000Y-112875500D03*
D18*
G36*
X148605691Y-110813176D02*
G01*
X148629401Y-110816693D01*
X148652652Y-110822517D01*
X148675220Y-110830592D01*
X148696889Y-110840841D01*
X148717448Y-110853164D01*
X148736701Y-110867442D01*
X148754461Y-110883539D01*
X148770558Y-110901299D01*
X148784836Y-110920552D01*
X148797159Y-110941111D01*
X148807408Y-110962780D01*
X148815483Y-110985348D01*
X148821307Y-111008599D01*
X148824824Y-111032309D01*
X148826000Y-111056250D01*
X148826000Y-111544750D01*
X148824824Y-111568691D01*
X148821307Y-111592401D01*
X148815483Y-111615652D01*
X148807408Y-111638220D01*
X148797159Y-111659889D01*
X148784836Y-111680448D01*
X148770558Y-111699701D01*
X148754461Y-111717461D01*
X148736701Y-111733558D01*
X148717448Y-111747836D01*
X148696889Y-111760159D01*
X148675220Y-111770408D01*
X148652652Y-111778483D01*
X148629401Y-111784307D01*
X148605691Y-111787824D01*
X148581750Y-111789000D01*
X148018250Y-111789000D01*
X147994309Y-111787824D01*
X147970599Y-111784307D01*
X147947348Y-111778483D01*
X147924780Y-111770408D01*
X147903111Y-111760159D01*
X147882552Y-111747836D01*
X147863299Y-111733558D01*
X147845539Y-111717461D01*
X147829442Y-111699701D01*
X147815164Y-111680448D01*
X147802841Y-111659889D01*
X147792592Y-111638220D01*
X147784517Y-111615652D01*
X147778693Y-111592401D01*
X147775176Y-111568691D01*
X147774000Y-111544750D01*
X147774000Y-111056250D01*
X147775176Y-111032309D01*
X147778693Y-111008599D01*
X147784517Y-110985348D01*
X147792592Y-110962780D01*
X147802841Y-110941111D01*
X147815164Y-110920552D01*
X147829442Y-110901299D01*
X147845539Y-110883539D01*
X147863299Y-110867442D01*
X147882552Y-110853164D01*
X147903111Y-110840841D01*
X147924780Y-110830592D01*
X147947348Y-110822517D01*
X147970599Y-110816693D01*
X147994309Y-110813176D01*
X148018250Y-110812000D01*
X148581750Y-110812000D01*
X148605691Y-110813176D01*
X148605691Y-110813176D01*
G37*
D19*
X148300000Y-111300500D03*
M02*
